<?xml version="1.0" encoding="utf-8"?>
<!-- Generator: Adobe Illustrator 25.2.1, SVG Export Plug-In . SVG Version: 6.00 Build 0)  -->
<svg version="1.1" id="Layer_1" xmlns="http://www.w3.org/2000/svg" xmlns:xlink="http://www.w3.org/1999/xlink" x="0px" y="0px"
	 viewBox="0 0 628.8 353.8" style="enable-background:new 0 0 628.8 353.8;" xml:space="preserve">
<style type="text/css">
	.st0{fill:#262626;}
	.st1{fill:#FFFFFF;}
	.st2{opacity:0.5;}
	.st3{opacity:0.15;fill-rule:evenodd;clip-rule:evenodd;fill:url(#);}
	.st4{fill:#EEEEEE;}
	.st5{fill:#141414;}
	.st6{fill:#FBFFFF;}
	.st7{fill:#F6F8F8;}
	.st8{fill:#1E1E1E;}
	.st9{fill:#F48988;}
	.st10{fill:#683A32;}
	.st11{clip-path:url(#SVGID_11_);}
	.st12{clip-path:url(#SVGID_11_);fill:#FFFFFF;}
	.st13{fill:#F9A1A1;}
	.st14{fill:none;stroke:#F48988;stroke-width:1.5;stroke-miterlimit:10;}
	.st15{fill:#EDEDED;}
	.st16{fill:#ECECEC;}
	.st17{fill:#EBEBEC;}
	.st18{fill:#EBEBEB;}
	.st19{fill:#EAEAEB;}
	.st20{fill:#EAEAEA;}
	.st21{fill:#E9E9EA;}
	.st22{fill:#E8E9E9;}
	.st23{fill:#E8E8E9;}
	.st24{fill:#E7E8E8;}
	.st25{fill:#E7E7E8;}
	.st26{fill:#E6E6E7;}
	.st27{fill:#E5E5E6;}
	.st28{fill:#E4E4E6;}
	.st29{fill:#E4E4E5;}
	.st30{fill:#E3E4E5;}
	.st31{fill:#E3E3E4;}
	.st32{fill:#E2E3E4;}
	.st33{fill:#E2E2E4;}
	.st34{fill:#E1E2E3;}
	.st35{fill:#E1E1E3;}
	.st36{fill:#E0E0E2;}
	.st37{fill:#DFDFE1;}
	.st38{fill:#DEDFE1;}
	.st39{fill:#DEDEE0;}
	.st40{fill:#DDDEE0;}
	.st41{fill:#DDDDDF;}
	.st42{fill:#DCDDDF;}
	.st43{fill:#DCDCDF;}
	.st44{fill:#DBDCDE;}
	.st45{fill:#DBDBDE;}
	.st46{fill:#DADBDD;}
	.st47{fill:#DADADD;}
	.st48{fill:#D9DADC;}
	.st49{fill:#D9D9DC;}
	.st50{fill:#D8D9DB;}
	.st51{fill:#D8D8DB;}
	.st52{fill:#D7D8DB;}
	.st53{fill:#D7D7DA;}
	.st54{fill:#D6D7DA;}
	.st55{fill:#D6D6D9;}
	.st56{fill:#D5D6D9;}
	.st57{fill:#D5D5D9;}
	.st58{fill:#D4D5D8;}
	.st59{fill:#D4D4D8;}
	.st60{fill:#D3D4D7;}
	.st61{fill:#D3D3D7;}
	.st62{fill:#D2D3D6;}
	.st63{fill:#D2D2D6;}
	.st64{fill:#D1D2D5;}
	.st65{fill:#D1D1D5;}
	.st66{fill:#D0D1D5;}
	.st67{fill:#D0D0D4;}
	.st68{fill:#CFD0D4;}
	.st69{fill:#CFCFD3;}
	.st70{fill:#CECFD3;}
	.st71{fill:#CDCED2;}
	.st72{fill:#CCCDD1;}
	.st73{fill:#CCCCD1;}
	.st74{fill:#CBCCD0;}
	.st75{fill:#CBCBD0;}
	.st76{fill:#CACBD0;}
	.st77{fill:#CACACF;}
	.st78{fill:#C9CACF;}
	.st79{fill:#C9CACE;}
	.st80{fill:#C8C9CE;}
	.st81{fill:#C7C8CD;}
	.st82{fill:#C6C7CC;}
	.st83{fill:#C6C6CC;}
	.st84{fill:#C5C6CB;}
	.st85{fill:#C5C5CB;}
	.st86{fill:#C4C5CA;}
	.st87{fill:#C3C4CA;}
	.st88{fill:#C3C4C9;}
	.st89{fill:#C2C3C9;}
	.st90{fill:#C2C3C8;}
	.st91{fill:#C1C2C8;}
	.st92{fill:#C0C1C7;}
	.st93{fill:#BFC0C6;}
	.st94{fill:url(#SVGID_12_);}
	.st95{fill:#395395;}
	.st96{fill:none;stroke:#FBFFFF;stroke-miterlimit:10;}
	.st97{opacity:0.5;fill:none;stroke:#C5C5C5;stroke-width:2;stroke-miterlimit:10;}
	.st98{fill:#95B6D0;}
	.st99{fill:#F2F6F9;}
	.st100{fill:#CB2F35;}
	.st101{fill:#002A4A;}
	.st102{clip-path:url(#SVGID_13_);fill:#606060;}
	.st103{fill:none;stroke:#4B545B;stroke-width:2;stroke-miterlimit:10;}
	.st104{fill:#4B545B;}
	.st105{opacity:0.3;fill:none;stroke:#4B545B;stroke-width:2;stroke-miterlimit:10;}
	.st106{opacity:0.35;}
	.st107{opacity:0.5;fill:none;stroke:#FFFFFF;stroke-width:2;stroke-miterlimit:10;}
	.st108{opacity:0.3;}
	.st109{fill:url(#SVGID_14_);}
	.st110{fill:#343434;}
	.st111{fill:url(#SVGID_15_);}
	.st112{opacity:0.3;fill:#1D2B36;}
	.st113{fill:#1D2B36;}
	.st114{fill:#E2E2E2;stroke:#E2E6E9;stroke-miterlimit:10;}
	.st115{opacity:0.75;}
	.st116{fill:#FFFFFF;stroke:#1D2B36;stroke-miterlimit:10;}
	.st117{fill:none;stroke:#1D2B36;stroke-miterlimit:10;}
	.st118{fill:#FFFFFF;stroke:#FFFFFF;stroke-width:8;stroke-linecap:round;stroke-linejoin:round;stroke-miterlimit:10;}
	.st119{fill:#FFFFFF;stroke:#FFFFFF;stroke-width:6;stroke-miterlimit:10;}
	.st120{clip-path:url(#SVGID_20_);}
	.st121{clip-path:url(#SVGID_20_);fill:none;stroke:#FFFFFF;stroke-miterlimit:10;}
	.st122{fill:none;stroke:#F48988;stroke-width:2;stroke-linecap:round;stroke-linejoin:round;stroke-miterlimit:10;}
	.st123{fill:url(#SVGID_21_);}
	.st124{fill:#E3E3E3;}
	.st125{opacity:0.2;}
	.st126{opacity:0.1;clip-path:url(#SVGID_22_);fill:#EEEEEE;}
	.st127{clip-path:url(#SVGID_26_);fill:none;}
	.st128{opacity:0.2;clip-path:url(#SVGID_26_);fill:#EEEEEE;}
	.st129{opacity:0.7;}
	.st130{opacity:0.2;clip-path:url(#SVGID_28_);fill:#262626;}
	.st131{fill:url(#SVGID_29_);}
	.st132{clip-path:url(#SVGID_41_);}
	.st133{clip-path:url(#SVGID_43_);fill:none;}
	.st134{opacity:0.2;clip-path:url(#SVGID_43_);fill:#EEEEEE;}
	.st135{clip-path:url(#SVGID_44_);}
	.st136{clip-path:url(#SVGID_44_);fill:#FFFFFF;}
	.st137{clip-path:url(#SVGID_45_);}
	.st138{clip-path:url(#SVGID_45_);fill:#FFFFFF;}
</style>
<g>
	<g>
		
			<image style="overflow:visible;opacity:0.4;" width="2426" height="1348" xlink:href="91B9D3F6.png"  transform="matrix(0.24 0 0 0.24 23.0528 10.0211)">
		</image>
		<g>
			<g>
				<g>
					<path class="st1" d="M88,32.9v5.9H68.2v65.5H61V38.9H41.1v-5.9H88z"/>
					<path class="st1" d="M68.2,114.3H61c-5.5,0-9.9-4.4-9.9-9.9V48.8h-10c-5.5,0-9.9-4.4-9.9-9.9v-5.9c0-5.5,4.4-9.9,9.9-9.9H88
						c5.5,0,9.9,4.4,9.9,9.9v5.9c0,5.5-4.4,9.9-9.9,9.9h-9.9v55.6C78.1,109.8,73.7,114.3,68.2,114.3z"/>
				</g>
				<g>
					<path class="st1" d="M137.3,50.2c3.4,1.8,6,4.5,8,8.1c1.9,3.6,2.9,8.1,2.9,13.3v32.7h-7V72.5c0-6.1-1.5-10.7-4.5-13.9
						c-3-3.2-7.2-4.8-12.4-4.8c-5.4,0-9.7,1.7-12.9,5.1c-3.2,3.4-4.8,8.4-4.8,15v30.4h-7.2V28.8h7.2v29.3c1.8-3.3,4.4-5.9,7.8-7.8
						c3.4-1.8,7.3-2.8,11.6-2.8C130.1,47.5,133.9,48.4,137.3,50.2z"/>
					<path class="st1" d="M148.2,114.3h-7c-5.5,0-9.9-4.4-9.9-9.9V72.5c0-2.3-0.3-5.5-1.8-7.1c-0.7-0.8-2-1.7-5.2-1.7
						c-3.4,0-4.8,1.1-5.7,2c-1.7,1.9-2.1,5.5-2.1,8.2v30.4c0,5.5-4.4,9.9-9.9,9.9h-7.2c-5.5,0-9.9-4.4-9.9-9.9V28.8
						c0-5.5,4.4-9.9,9.9-9.9h7.2c5.5,0,9.9,4.4,9.9,9.9v10.1c3-0.8,6.2-1.2,9.5-1.2c5.8,0,11.2,1.3,16,3.8c0,0,0,0,0,0
						c5.1,2.7,9.2,6.8,12.1,12.2c2.7,5.1,4.1,11.1,4.1,18v32.7C158.1,109.8,153.7,114.3,148.2,114.3z"/>
				</g>
				<g>
					<path class="st1" d="M214.3,79.2H168c0.2,4.2,1.2,7.8,3.1,10.8c1.8,3,4.3,5.3,7.3,6.8c3,1.5,6.3,2.3,9.8,2.3
						c4.6,0,8.5-1.1,11.7-3.4c3.2-2.2,5.3-5.3,6.3-9.1h7.6c-1.4,5.4-4.3,9.9-8.7,13.3c-4.5,3.4-10.1,5.2-16.8,5.2
						c-5.2,0-9.9-1.2-14.1-3.5c-4.2-2.3-7.4-5.7-9.8-10s-3.5-9.4-3.5-15.2s1.2-10.9,3.5-15.2c2.3-4.4,5.5-7.7,9.7-10
						c4.2-2.3,8.9-3.5,14.2-3.5c5.3,0,10,1.2,13.9,3.5c4,2.3,7,5.4,9.2,9.3c2.1,3.9,3.2,8.3,3.2,13
						C214.5,76.1,214.4,77.9,214.3,79.2z M204.7,62.8c-1.7-2.9-4.1-5.1-7.1-6.6c-3-1.5-6.3-2.2-9.8-2.2c-5.3,0-9.8,1.7-13.6,5.1
						c-3.7,3.4-5.8,8.2-6.2,14.4h39.2C207.3,69.2,206.5,65.7,204.7,62.8z"/>
					<path class="st1" d="M188.1,115.1c-7,0-13.3-1.6-19-4.8c-5.8-3.3-10.3-7.9-13.6-13.9c-3.1-5.8-4.7-12.5-4.7-19.9
						c0-7.4,1.6-14.1,4.6-19.9c3.2-6,7.8-10.8,13.6-14c5.6-3.1,12-4.7,19-4.7c7.1,0,13.4,1.6,18.9,4.8c5.5,3.2,9.9,7.6,12.9,13.1
						c2.9,5.4,4.4,11.4,4.4,17.8c0,2.8-0.1,5-0.3,6.6c-0.1,1.2-0.5,2.4-1,3.5c0.5,1.7,0.6,3.6,0.2,5.4c-1.9,7.6-6,14-12.3,18.8
						C204.8,112.6,197.1,115.1,188.1,115.1z M186.3,89.1c1.2,0.2,2.7,0.1,3.8,0H186.3z"/>
				</g>
			</g>
			<g>
				<g>
					<path class="st1" d="M180.8,139.7c-4,3.7-10,5.6-18.1,5.6h-14.4v30.4h-7.2v-71.4h21.6c8,0,14,1.9,18,5.6
						c4.1,3.7,6.1,8.7,6.1,14.9C186.8,131,184.8,135.9,180.8,139.7z M179.5,124.9c0-4.8-1.3-8.4-4-10.8c-2.7-2.5-6.9-3.7-12.8-3.7
						h-14.4v28.8h14.4C173.9,139.2,179.5,134.4,179.5,124.9z"/>
					<path class="st1" d="M148.3,185.6h-7.2c-5.5,0-9.9-4.4-9.9-9.9v-71.4c0-5.5,4.4-9.9,9.9-9.9h21.6c10.5,0,18.8,2.8,24.8,8.2
						c6.1,5.6,9.3,13.3,9.3,22.2c0,8.8-3.2,16.5-9.2,22.1c0,0,0,0,0,0c-5.9,5.5-14.2,8.3-24.8,8.3h-4.5v20.5
						C158.2,181.2,153.8,185.6,148.3,185.6z M158.2,129.3h4.5c6.9,0,6.9-1.6,6.9-4.4c0-1.8-0.3-3.1-0.8-3.6c0,0-1.3-1-6.1-1h-4.5
						V129.3z"/>
				</g>
				<g>
					<path class="st1" d="M249,150.6h-46.3c0.2,4.2,1.2,7.8,3.1,10.8c1.8,3,4.3,5.3,7.3,6.8c3,1.5,6.3,2.3,9.8,2.3
						c4.6,0,8.5-1.1,11.7-3.4c3.2-2.2,5.3-5.3,6.3-9.1h7.6c-1.4,5.4-4.3,9.9-8.7,13.3c-4.5,3.4-10.1,5.2-16.8,5.2
						c-5.2,0-9.9-1.2-14.1-3.5c-4.2-2.3-7.4-5.7-9.8-10s-3.5-9.4-3.5-15.2s1.2-10.9,3.5-15.2c2.3-4.4,5.5-7.7,9.7-10
						c4.2-2.3,8.9-3.5,14.2-3.5s10,1.2,13.9,3.5c4,2.3,7,5.4,9.2,9.3c2.1,3.9,3.2,8.3,3.2,13C249.2,147.4,249.2,149.3,249,150.6z
						 M239.5,134.1c-1.7-2.9-4.1-5.1-7.1-6.6c-3-1.5-6.3-2.2-9.8-2.2c-5.3,0-9.8,1.7-13.6,5.1c-3.7,3.4-5.8,8.2-6.2,14.4H242
						C242,140.6,241.2,137.1,239.5,134.1z"/>
					<path class="st1" d="M222.9,186.4c-7,0-13.3-1.6-19-4.8c-5.8-3.3-10.3-7.9-13.6-13.9c-3.1-5.8-4.7-12.5-4.7-19.9
						c0-7.4,1.6-14.1,4.6-19.9c3.2-6,7.8-10.8,13.6-14c5.6-3.1,12-4.7,19-4.7c7.1,0,13.4,1.6,18.9,4.8c5.5,3.2,9.9,7.6,12.9,13.1
						c2.9,5.4,4.4,11.4,4.4,17.8c0,2.8-0.1,5-0.3,6.6c-0.1,1.2-0.5,2.4-1,3.5c0.5,1.7,0.6,3.6,0.2,5.4c-1.9,7.6-6,14-12.3,18.8
						C239.5,184,231.8,186.4,222.9,186.4z M221.1,160.5c1.2,0.2,2.7,0.1,3.8,0H221.1z"/>
				</g>
				<g>
					<path class="st1" d="M271.6,126v34.6c0,3.4,0.6,5.8,1.9,7.1c1.3,1.3,3.6,1.9,6.8,1.9h6.5v6.1h-7.7c-5,0-8.8-1.2-11.2-3.5
						c-2.5-2.3-3.7-6.2-3.7-11.6V126h-7.8v-6h7.8v-14h7.3v14h15.3v6H271.6z"/>
					<path class="st1" d="M286.9,185.6h-7.7c-7.7,0-13.7-2.1-18.1-6.3c-4.5-4.3-6.7-10.6-6.7-18.7v-25c-4.4-1-7.8-4.9-7.8-9.7v-6
						c0-4.7,3.3-8.7,7.8-9.7v-4.3c0-5.5,4.4-9.9,9.9-9.9h7.3c5.5,0,9.9,4.4,9.9,9.9v4.1h5.4c5.5,0,9.9,4.4,9.9,9.9v6
						c0,5.5-4.4,9.9-9.9,9.9h-5.4v23.8h5.4c5.5,0,9.9,4.4,9.9,9.9v6.1C296.8,181.2,292.4,185.6,286.9,185.6z M281.6,162.3
						L281.6,162.3L281.6,162.3z"/>
				</g>
				<g>
					<path class="st1" d="M302.2,172.1c-4.1-3-6.3-7-6.8-12.1h7.4c0.3,3.1,1.8,5.7,4.4,7.6c2.6,1.9,6.1,2.9,10.6,2.9
						c3.9,0,6.9-0.9,9.1-2.8c2.2-1.8,3.3-4.1,3.3-6.8c0-1.9-0.6-3.5-1.8-4.7c-1.2-1.2-2.8-2.2-4.6-2.9c-1.9-0.7-4.4-1.5-7.6-2.3
						c-4.2-1.1-7.5-2.2-10.1-3.3c-2.6-1.1-4.8-2.7-6.6-4.9c-1.8-2.1-2.7-5-2.7-8.6c0-2.7,0.8-5.2,2.5-7.6c1.6-2.3,3.9-4.2,6.9-5.5
						c3-1.4,6.4-2,10.2-2c6,0,10.8,1.5,14.5,4.5c3.7,3,5.7,7.2,5.9,12.5h-7.2c-0.2-3.3-1.5-5.9-3.8-7.9c-2.4-2-5.6-3-9.7-3
						c-3.6,0-6.5,0.9-8.8,2.6c-2.2,1.7-3.4,3.8-3.4,6.3c0,2.2,0.7,4,2,5.4c1.3,1.4,3,2.5,5,3.3c2,0.8,4.6,1.7,8,2.6
						c4,1.1,7.2,2.1,9.6,3.2c2.4,1,4.4,2.5,6.1,4.5c1.7,2,2.6,4.6,2.7,7.9c0,3-0.8,5.7-2.5,8c-1.6,2.3-3.9,4.2-6.8,5.6
						c-2.9,1.4-6.3,2-10.1,2C311.5,176.5,306.3,175.1,302.2,172.1z"/>
					<path class="st1" d="M317.9,186.4c-8.5,0-15.8-2.1-21.5-6.3c0,0,0,0,0,0c-6.3-4.6-10.1-11.3-10.8-19.2
						c-0.3-2.8,0.7-5.5,2.5-7.6c1.3-1.4,3-2.4,4.8-2.9c-0.4-0.4-0.7-0.8-1-1.2c-3.3-4-5-9-5-15c0-4.8,1.4-9.3,4.3-13.3
						c2.7-3.8,6.3-6.7,10.9-8.8c4.3-1.9,9.1-2.9,14.3-2.9c8.3,0,15.3,2.3,20.8,6.8c5.8,4.8,9.1,11.6,9.5,19.6
						c0.1,2.7-0.8,5.4-2.7,7.3c-0.9,0.9-1.9,1.7-3.1,2.2c0.4,0.4,0.9,0.9,1.3,1.4c3.2,3.8,4.9,8.5,5.1,14.1c0,5.3-1.4,9.9-4.2,13.9
						c-2.6,3.8-6.3,6.8-10.8,8.9C327.9,185.4,323.1,186.4,317.9,186.4z"/>
				</g>
			</g>
			<g>
				<g>
					<path class="st1" d="M190.5,175.7l-20.2,71.4h-8l-18-60.9L126,247.1l-7.8,0.1l-19.8-71.5h7.7l16.3,62.6l18.3-62.6h8l17.8,62.6
						l16.4-62.6H190.5z"/>
					<path class="st1" d="M118.2,257.1c-4.4,0-8.3-3-9.5-7.3l-19.8-71.5c-0.8-3-0.2-6.2,1.7-8.6c1.9-2.5,4.8-3.9,7.9-3.9h7.7
						c4.5,0,8.4,3,9.6,7.4l7.3,28l8.2-28.2c1.2-4.2,5.1-7.1,9.5-7.1h8c4.4,0,8.3,2.9,9.5,7.2l7.9,27.8l7.2-27.6
						c1.1-4.4,5.1-7.4,9.6-7.4h7.7c3.1,0,6,1.5,7.9,3.9c1.9,2.5,2.5,5.7,1.6,8.7l-20.2,71.4c-1.2,4.3-5.1,7.2-9.5,7.2h-8
						c-4.4,0-8.3-2.9-9.5-7.1l-8.6-29.1l-8.8,29.2c-1.2,4.1-5,7-9.3,7l-7.8,0.1C118.3,257.1,118.2,257.1,118.2,257.1z"/>
				</g>
				<g>
					<path class="st1" d="M211.7,244.4c-4.2-2.3-7.5-5.7-9.9-10c-2.4-4.3-3.6-9.4-3.6-15.2s1.2-10.8,3.7-15.2c2.5-4.3,5.8-7.7,10-10
						c4.2-2.3,9-3.5,14.2-3.5c5.2,0,10,1.2,14.3,3.5s7.6,5.7,10,10c2.4,4.3,3.6,9.4,3.6,15.2c0,5.7-1.2,10.8-3.7,15.1
						c-2.5,4.4-5.8,7.7-10.1,10.1c-4.3,2.3-9.1,3.5-14.3,3.5C220.6,247.9,215.9,246.7,211.7,244.4z M236.1,239.2
						c3.1-1.7,5.7-4.2,7.6-7.6c1.9-3.4,2.9-7.5,2.9-12.4s-1-9-2.9-12.4c-1.9-3.4-4.4-5.9-7.6-7.6c-3.1-1.7-6.5-2.5-10.2-2.5
						s-7.1,0.8-10.2,2.5c-3.1,1.7-5.6,4.2-7.5,7.6c-1.9,3.4-2.8,7.5-2.8,12.4s0.9,9,2.8,12.4c1.9,3.4,4.4,5.9,7.5,7.6
						c3.1,1.7,6.5,2.5,10.2,2.5C229.6,241.7,233,240.8,236.1,239.2z"/>
					<path class="st1" d="M225.9,257.8c-6.9,0-13.3-1.6-19-4.8c-5.8-3.2-10.4-7.9-13.7-13.8c-3.2-5.8-4.9-12.5-4.9-20
						c0-7.5,1.7-14.2,5-20.1c3.4-5.9,8-10.5,13.8-13.8c5.7-3.2,12.1-4.8,19-4.8c6.9,0,13.3,1.6,19,4.8c5.9,3.2,10.5,7.9,13.9,13.8
						c3.2,5.8,4.9,12.5,4.9,20c0,7.4-1.7,14.1-5,20c-3.4,6-8.1,10.6-14,13.9C239.2,256.2,232.8,257.8,225.9,257.8z M226,206.6
						c-2,0-3.9,0.4-5.6,1.3c-1.4,0.8-2.6,1.9-3.5,3.6c-1,1.9-1.6,4.4-1.6,7.6c0,3.2,0.5,5.7,1.6,7.6c1,1.7,2.1,2.9,3.5,3.7
						c3.3,1.8,7.7,1.8,11,0c0,0,0,0,0,0c1.5-0.8,2.7-2,3.7-3.8c1.1-1.8,1.6-4.3,1.6-7.5c0-3.2-0.5-5.7-1.6-7.5
						c-1-1.7-2.1-2.9-3.6-3.7C229.8,207,228,206.6,226,206.6z"/>
				</g>
				<g>
					<path class="st1" d="M281.4,193.1c3.2-1.9,7.2-2.9,11.9-2.9v7.5h-1.9c-5.2,0-9.3,1.4-12.5,4.2c-3.1,2.8-4.7,7.5-4.7,14v31.2
						H267v-55.8h7.2v9.9C275.8,197.7,278.2,195,281.4,193.1z"/>
					<path class="st1" d="M274.2,257H267c-5.5,0-9.9-4.4-9.9-9.9v-55.8c0-5.5,4.4-9.9,9.9-9.9h7.2c2,0,3.8,0.6,5.4,1.6
						c4-1.7,8.6-2.6,13.7-2.6c5.5,0,9.9,4.4,9.9,9.9v7.5c0,5.5-4.4,9.9-9.9,9.9h-1.9c-4,0-5.4,1.3-5.9,1.7c-0.5,0.5-1.4,2.4-1.4,6.6
						v31.2C284.1,252.5,279.7,257,274.2,257z"/>
				</g>
				<g>
					<path class="st1" d="M334.2,247.1l-23-25v25H304v-75.6h7.2v44.7l22.5-24.9h10l-26.5,27.8l26.7,28H334.2z"/>
					<path class="st1" d="M343.9,257h-9.7c-2.8,0-5.4-1.2-7.3-3.2l-5.8-6.3c-0.2,5.3-4.6,9.5-9.9,9.5H304c-5.5,0-9.9-4.4-9.9-9.9
						v-75.6c0-5.5,4.4-9.9,9.9-9.9h7.2c5.5,0,9.9,4.4,9.9,9.9v19l5.2-5.8c1.9-2.1,4.5-3.3,7.4-3.3h10c4,0,7.5,2.4,9.1,6
						c1.6,3.6,0.8,7.9-1.9,10.7l-20,21l20.2,21.2c2.7,2.9,3.5,7.1,1.9,10.7C351.4,254.6,347.8,257,343.9,257z"/>
				</g>
				<g>
					<path class="st1" d="M356.6,243.4c-4.1-3-6.3-7-6.8-12.1h7.4c0.3,3.1,1.8,5.7,4.4,7.6c2.6,1.9,6.1,2.9,10.6,2.9
						c3.9,0,6.9-0.9,9.1-2.8c2.2-1.8,3.3-4.1,3.3-6.8c0-1.9-0.6-3.5-1.8-4.7c-1.2-1.2-2.8-2.2-4.6-2.9c-1.9-0.7-4.4-1.5-7.6-2.3
						c-4.2-1.1-7.5-2.2-10.1-3.3c-2.6-1.1-4.8-2.7-6.6-4.9c-1.8-2.1-2.7-5-2.7-8.6c0-2.7,0.8-5.2,2.5-7.6c1.6-2.3,3.9-4.2,6.9-5.5
						c3-1.4,6.4-2,10.2-2c6,0,10.8,1.5,14.5,4.5c3.7,3,5.7,7.2,5.9,12.5H384c-0.2-3.3-1.5-5.9-3.8-7.9c-2.4-2-5.6-3-9.7-3
						c-3.6,0-6.5,0.9-8.8,2.6c-2.2,1.7-3.4,3.8-3.4,6.3c0,2.2,0.7,4,2,5.4c1.3,1.4,3,2.5,5,3.3c2,0.8,4.6,1.7,8,2.6
						c4,1.1,7.2,2.1,9.6,3.2c2.4,1,4.4,2.5,6.1,4.5c1.7,2,2.6,4.6,2.7,7.9c0,3-0.8,5.7-2.5,8c-1.6,2.3-3.9,4.2-6.8,5.6
						c-2.9,1.4-6.3,2-10.1,2C365.9,247.9,360.6,246.4,356.6,243.4z"/>
					<path class="st1" d="M372.3,257.8c-8.5,0-15.8-2.1-21.5-6.3c0,0,0,0,0,0c-6.3-4.6-10.1-11.3-10.8-19.2
						c-0.3-2.8,0.7-5.5,2.5-7.6c1.3-1.4,3-2.4,4.8-2.9c-0.4-0.4-0.7-0.8-1-1.2c-3.3-4-5-9-5-15c0-4.8,1.4-9.3,4.3-13.3
						c2.7-3.8,6.3-6.7,10.9-8.8c4.3-1.9,9.1-2.9,14.3-2.9c8.3,0,15.3,2.3,20.8,6.8c5.8,4.8,9.1,11.6,9.5,19.6
						c0.1,2.7-0.8,5.4-2.7,7.3c-0.9,0.9-1.9,1.7-3.1,2.2c0.4,0.4,0.9,0.9,1.3,1.4c3.2,3.8,4.9,8.5,5.1,14.1c0,5.3-1.4,9.9-4.2,13.9
						c-2.6,3.8-6.3,6.8-10.8,8.9C382.3,256.8,377.5,257.8,372.3,257.8z"/>
				</g>
				<g>
					<path class="st1" d="M443.1,192.9c3.4,1.8,6,4.5,8,8.1c1.9,3.6,2.9,8.1,2.9,13.3v32.7h-7v-31.9c0-6.1-1.5-10.7-4.5-13.9
						c-3-3.2-7.2-4.8-12.4-4.8c-5.4,0-9.7,1.7-12.9,5.1s-4.8,8.4-4.8,15v30.4h-7.2v-75.6h7.2v29.3c1.8-3.3,4.4-5.9,7.8-7.8
						c3.4-1.8,7.3-2.8,11.6-2.8C436,190.3,439.8,191.2,443.1,192.9z"/>
					<path class="st1" d="M454,257h-7c-5.5,0-9.9-4.4-9.9-9.9v-31.9c0-2.3-0.3-5.5-1.8-7.1c-0.7-0.8-2-1.7-5.2-1.7
						c-3.4,0-4.8,1.1-5.7,2c-1.7,1.9-2.1,5.5-2.1,8.2v30.4c0,5.5-4.4,9.9-9.9,9.9h-7.2c-5.5,0-9.9-4.4-9.9-9.9v-75.6
						c0-5.5,4.4-9.9,9.9-9.9h7.2c5.5,0,9.9,4.4,9.9,9.9v10.1c3-0.8,6.2-1.2,9.5-1.2c5.8,0,11.2,1.3,16,3.8c0,0,0,0,0,0
						c5.1,2.7,9.2,6.8,12.1,12.2c2.7,5.1,4.1,11.1,4.1,18v32.7C463.9,252.5,459.5,257,454,257z"/>
				</g>
				<g>
					<path class="st1" d="M480.1,244.4c-4.2-2.3-7.5-5.7-9.9-10c-2.4-4.3-3.6-9.4-3.6-15.2s1.2-10.8,3.7-15.2c2.5-4.3,5.8-7.7,10-10
						c4.2-2.3,9-3.5,14.2-3.5c5.2,0,10,1.2,14.3,3.5c4.3,2.3,7.6,5.7,10,10c2.4,4.3,3.6,9.4,3.6,15.2c0,5.7-1.2,10.8-3.7,15.1
						c-2.5,4.4-5.8,7.7-10.1,10.1c-4.3,2.3-9.1,3.5-14.3,3.5C489,247.9,484.3,246.7,480.1,244.4z M504.5,239.2
						c3.1-1.7,5.7-4.2,7.6-7.6c1.9-3.4,2.9-7.5,2.9-12.4s-1-9-2.9-12.4c-1.9-3.4-4.4-5.9-7.6-7.6c-3.1-1.7-6.5-2.5-10.2-2.5
						s-7.1,0.8-10.2,2.5c-3.1,1.7-5.6,4.2-7.5,7.6c-1.9,3.4-2.8,7.5-2.8,12.4s0.9,9,2.8,12.4c1.9,3.4,4.4,5.9,7.5,7.6
						c3.1,1.7,6.5,2.5,10.2,2.5C497.9,241.7,501.3,240.8,504.5,239.2z"/>
					<path class="st1" d="M494.3,257.8c-6.9,0-13.3-1.6-19-4.8c-5.8-3.2-10.4-7.9-13.7-13.8c-3.2-5.8-4.9-12.5-4.9-20
						c0-7.5,1.7-14.2,5-20.1c3.4-5.9,8-10.5,13.8-13.8c5.7-3.2,12.1-4.8,19-4.8c6.9,0,13.3,1.6,19,4.8c5.9,3.2,10.5,7.9,13.9,13.8
						c3.2,5.8,4.9,12.5,4.9,20c0,7.4-1.7,14.1-5,20c-3.4,6-8.1,10.6-14,13.9C507.6,256.2,501.2,257.8,494.3,257.8z M494.4,206.6
						c-2,0-3.9,0.4-5.6,1.3c-1.4,0.8-2.6,1.9-3.5,3.6c-1,1.9-1.6,4.4-1.6,7.6c0,3.2,0.5,5.7,1.6,7.6c1,1.7,2.1,2.9,3.5,3.7
						c3.3,1.8,7.7,1.8,11,0c0,0,0,0,0,0c1.5-0.8,2.7-2,3.7-3.8c1.1-1.8,1.6-4.3,1.6-7.5c0-3.2-0.5-5.7-1.6-7.5
						c-1-1.7-2.1-2.9-3.6-3.7C498.2,207,496.4,206.6,494.4,206.6z"/>
				</g>
				<g>
					<path class="st1" d="M550.9,194.2c3.8-2.5,8.4-3.7,13.7-3.7c5,0,9.6,1.2,13.6,3.5c4.1,2.3,7.2,5.7,9.5,10
						c2.3,4.3,3.4,9.3,3.4,15.1s-1.1,10.8-3.4,15.1c-2.3,4.4-5.5,7.7-9.5,10.1c-4.1,2.4-8.6,3.6-13.6,3.6c-5.2,0-9.8-1.2-13.7-3.7
						c-3.9-2.5-6.7-5.6-8.5-9.3v80.7h-7V191.3h7v12.3C544.2,199.8,547.1,196.7,550.9,194.2z M581.2,207.1c-1.8-3.4-4.3-5.9-7.4-7.7
						c-3.1-1.8-6.7-2.7-10.6-2.7c-3.8,0-7.3,0.9-10.5,2.8c-3.2,1.8-5.7,4.5-7.5,7.9c-1.8,3.4-2.8,7.4-2.8,11.9s0.9,8.4,2.8,11.9
						c1.8,3.4,4.3,6,7.5,7.9c3.2,1.8,6.7,2.8,10.5,2.8c3.9,0,7.5-0.9,10.6-2.7c3.1-1.8,5.6-4.4,7.4-7.9c1.8-3.4,2.7-7.4,2.7-12
						C584,214.4,583,210.4,581.2,207.1z"/>
					<path class="st1" d="M542.5,325.4h-7c-5.5,0-9.9-4.4-9.9-9.9V191.3c0-5.5,4.4-9.9,9.9-9.9h7c2.5,0,4.8,1,6.6,2.5
						c4.6-2.2,9.9-3.3,15.6-3.3c6.8,0,13,1.6,18.6,4.9c5.7,3.3,10.1,8,13.3,14c3,5.8,4.6,12.4,4.6,19.7c0,7.3-1.5,13.9-4.6,19.7
						c-3.1,6-7.6,10.7-13.3,14.1c-5.6,3.3-11.9,4.9-18.7,4.9c-4.4,0-8.5-0.7-12.3-2v59.7C552.4,321,547.9,325.4,542.5,325.4z
						 M563.2,206.6c-2.1,0-3.9,0.5-5.5,1.4c-1.6,0.9-2.8,2.2-3.8,4c-1.1,2-1.6,4.3-1.6,7.1s0.5,5.2,1.6,7.1c1,1.8,2.2,3.1,3.8,4
						c1.6,1,3.4,1.4,5.5,1.4c2.2,0,4.1-0.5,5.7-1.4c1.5-0.9,2.6-2.1,3.6-3.9c1-2,1.6-4.5,1.6-7.4c0-3-0.5-5.4-1.5-7.3l0,0
						c-0.9-1.7-2.1-2.9-3.6-3.8C567.3,207.1,565.4,206.6,563.2,206.6z"/>
				</g>
			</g>
			<g>
				<g>
					<path class="st1" d="M220.7,62.5c-1.5,0.1-3-0.1-4.5-0.5c-0.2-0.1-0.4-0.1-0.6-0.2c-2.6-1-4.9-2.5-6.5-4.8
						c-2.2-3.1-2.9-6.4-1.7-10.1c0.9-2.5,2.6-4.3,5-5.5c1.4-0.7,2.9-1.1,4.9-1.3c4.8-0.1,9,1.8,12.1,6.1c0.7,1,1.2,2.1,1.5,3.2
						c0.3,0.9,0.4,1.8,0.5,2.8l0,0.2c3,2.3,5.9,4.7,9,6.8c2.3,1.5,4.7,2.9,7,4.3c2.3,1.4,4.6,2.7,6.9,3.9c0.9,0.5,1.8,0.9,2.7,1.2
						c0.2,0.1,0.4,0.1,0.6,0.1c2.3,0,4.7,0,7,0c0.2,0,0.5,0.1,0.6,0.2c8,7.1,16,14.2,23.9,21.2c6.4,5.6,12.7,11.3,19.1,16.9
						c4.1,3.6,8.2,7.2,12.2,10.9c0.2,0.1,0.4,0.3,0.3,0.6c-0.1,0.3-0.3,0.4-0.6,0.5c-0.9,0.1-1.7-0.3-2.5-0.6
						c-2.6-1.2-4.9-3-7.3-4.6c-3.5-2.4-7-4.8-10.4-7.3c-5.9-4.1-11.7-8.2-17.4-12.6c-4.5-3.5-9-6.9-13.4-10.5
						c-2.7-2.2-5.3-4.3-8.2-6.3c-3.1-2.2-6.3-4.2-9.5-6.1c-0.2-0.1-0.3-0.2-0.4-0.5c-0.3-0.6-1-1-1.6-1.4c-0.1,0-0.1,0-0.2,0
						c-0.4,0.6-0.8,0.1-1.1-0.1c-3.4-2.1-6.7-4.1-10.2-5.9c-1.8-0.9-3.7-1.7-5.7-2c-1.7-0.2-3.4-0.1-5.1,0.2
						c-0.8,0.2-1.6,0.3-2.3,0.5l-1.6,0.3c0,0,0,0,0,0c-0.8,0.1-1.5,0.2-2.3,0.3L220.7,62.5z M275.2,79.6c-0.1-1.1-1-2-2.1-2.2
						c-1.8-0.4-3.3,1.1-3.2,2.9c0.1,1.4,1.4,2.5,2.9,2.4C274.3,82.5,275.4,81.1,275.2,79.6z"/>
					<path class="st1" d="M319.8,126.5c-2.4,0-4.3-0.9-5.3-1.4c-2.9-1.4-5.3-3.1-7.5-4.6l-5.9-4.1c-1.8-1.3-3.6-2.5-5.4-3.8l-2-1.4
						c-5.2-3.6-10.6-7.4-15.7-11.4c-1.6-1.3-3.2-2.5-4.8-3.8c-2.9-2.2-5.8-4.5-8.7-6.8c-2.7-2.2-5.1-4.2-7.7-6
						c-2.6-1.8-5.4-3.6-9.1-5.9c-0.4-0.3-0.8-0.6-1.2-0.9c-0.7-0.3-1.5-0.6-2.3-1.2l-0.4-0.2c-3.1-1.9-6-3.7-9-5.1
						c-1.2-0.6-2.4-1.1-3.5-1.3c-0.8-0.1-1.6-0.1-2.6,0.1l-4.8,0.9c-0.9,0.1-1.7,0.2-2.6,0.2l-0.4,0c-2.5,0.1-4.8-0.2-7-0.9
						c-0.3-0.1-0.6-0.2-0.9-0.3c-4.2-1.5-7.5-4-10-7.5c-3.7-5.2-4.6-11-2.7-16.8c1.4-4.3,4.4-7.7,8.7-9.8c2.1-1.1,4.4-1.7,7.4-2
						l0.6,0c7.5-0.2,14.1,3.1,18.4,9.3c1.1,1.6,1.9,3.4,2.5,5.3c0.1,0.4,0.2,0.7,0.3,1.1c2.1,1.7,4.2,3.2,6.3,4.7
						c1.6,1.1,3.3,2.1,5.1,3.2l1.6,0.9c2.4,1.4,4.5,2.6,6.5,3.7c0.3,0.2,0.7,0.3,1,0.5l0.8,0c1.7,0,3.3,0,5,0c2.1,0,4,0.8,5.6,2.1
						l55.3,49c2.6,2.2,3.5,5.7,2.3,8.8c-1.1,2.7-3.6,4.7-6.5,5.1C320.7,126.5,320.2,126.5,319.8,126.5z M315.6,123.7
						C315.6,123.7,315.6,123.7,315.6,123.7L315.6,123.7z M257.6,61.4L257.6,61.4C257.6,61.4,257.6,61.4,257.6,61.4z M217.8,47.5
						c-1.2,0.1-1.7,0.3-2,0.5c-1,0.5-1.2,0.9-1.3,1.3c-0.3,0.8-0.4,1.7,0.7,3.4c0.7,1,1.7,1.7,3,2.2l0.3,0.1
						c0.5,0.2,1.2,0.2,1.9,0.2l0.4,0c0.4,0,0.9-0.1,1.3-0.1l2-0.4l-0.1-1.7c0-0.6-0.1-1-0.2-1.3c-0.1-0.4-0.3-0.8-0.4-1
						C221.8,48.4,220.1,47.5,217.8,47.5C217.8,47.5,217.8,47.5,217.8,47.5z"/>
				</g>
				<g>
					<path class="st1" d="M266.1,68.1c-2.5,0-5-0.1-7.4-0.1c-0.3,0-0.5-0.1-0.6-0.3c-2.3-2.9-4.8-5.7-6.9-8.8
						c-2.4-3.5-5.3-6.5-8.1-9.5c-1.3-1.5-2.8-2.8-4.4-4c-0.3-0.2-0.5-0.3-0.8-0.2c-5,0.3-8.8-1.8-11.7-5.7c-1.9-2.6-2.7-5.6-2.4-8.8
						c0.4-3.4,1.9-6.1,4.9-7.8c3.5-2,7-1.7,10.6-0.1c2.6,1.2,4.6,3.2,6,5.7c1.4,2.5,2,5.3,1.6,8.2c-0.1,0.9-0.4,1.7-0.7,2.6
						c-0.2,0.5-0.2,1-0.2,1.6c-0.2,2.2,0.3,4.3,1.3,6.3c1.6,3.1,3.9,5.8,6.2,8.4c3.9,4.3,8.1,8.4,12.4,12.3
						C265.9,67.8,266,67.9,266.1,68.1z"/>
					<path class="st1" d="M281.7,75.8l-17.1-0.3c-2,0-3.9-0.1-5.9-0.1c-2.5,0-4.8-1.2-6.4-3.1c-0.7-0.8-1.3-1.6-2-2.5
						c-1.7-2.1-3.5-4.3-5.2-6.7c-1.7-2.5-3.9-4.9-6.2-7.4l-1.3-1.4c-0.5-0.6-1.2-1.2-1.9-1.8c-6.2-0.3-11.6-3.3-15.6-8.8
						c-3-4.1-4.3-8.9-3.8-14c0.6-5.9,3.7-10.6,8.7-13.4c3.7-2.1,9.8-3.9,17.4-0.3c4,1.9,7.1,4.8,9.3,8.7c2.3,4.1,3.1,8.4,2.5,13
						c-0.2,1.3-0.5,2.5-0.9,3.4l0,0.2c-0.1,0.8,0.1,1.5,0.5,2.4c1.2,2.3,3,4.4,5.1,6.8c3.2,3.5,6.8,7.2,11.9,11.7
						c0.6,0.5,1,1.1,1.2,1.3L281.7,75.8z M253,41.8C253,41.8,253,41.8,253,41.8C253,41.8,253,41.8,253,41.8z M237.9,37.7
						c0.3,0,0.6,0,0.8,0c0.1-0.4,0.2-0.7,0.3-1.1c0.1-0.2,0.3-0.7,0.3-1.1c0.2-1.2,0-2.3-0.7-3.5c-0.7-1.2-1.5-2-2.7-2.6
						c-2.1-1-3-0.6-3.8-0.2c-0.6,0.3-1.1,0.7-1.2,2.1c-0.1,1.3,0.2,2.5,1,3.6c1.8,2.4,3.4,2.8,5.3,2.7
						C237.6,37.7,237.8,37.7,237.9,37.7z"/>
				</g>
				<g>
					<path class="st1" d="M319.5,116.5c-17.9-15.8-35.7-31.7-53.6-47.6c0.8-0.1,1.4,0.1,1.9,0.5c4.6,4.1,9.3,8.1,14,12.1
						c4.7,4.1,9.3,8.3,13.9,12.5c4.7,4.4,9.5,8.9,14.3,13.2c3.1,2.8,6.3,5.6,9.3,8.7C319.3,116.2,319.5,116.3,319.5,116.5
						C319.5,116.5,319.5,116.5,319.5,116.5z"/>
					<path class="st1" d="M319.1,126.1l-71-63l17-1.6c3.6-0.3,6.1,1.1,7.5,2.4c4.6,4.1,9.3,8.1,13.9,12.1c4.4,3.8,9.1,8,14.1,12.8
						c5.1,4.8,9.8,9.1,14.2,13.1l1.3,1.2c2.7,2.5,5.6,5,8.3,7.8c0.2,0.2,0.4,0.5,0.7,0.7l5.3,6.3l-6.6,4.6L319.1,126.1z"/>
				</g>
			</g>
		</g>
	</g>
	<g>
		<g>
			
				<image style="overflow:visible;opacity:0.4;" width="748" height="344" xlink:href="91B9D3FA.png"  transform="matrix(0.24 0 0 0.24 37.0928 26.7011)">
			</image>
			<g>
				<path class="st8" d="M88,32.9v5.9H68.2v65.5H61V38.9H41.1v-5.9H88z"/>
				<path class="st8" d="M137.3,50.2c3.4,1.8,6,4.5,8,8.1c1.9,3.6,2.9,8.1,2.9,13.3v32.7h-7V72.5c0-6.1-1.5-10.7-4.5-13.9
					c-3-3.2-7.2-4.8-12.4-4.8c-5.4,0-9.7,1.7-12.9,5.1c-3.2,3.4-4.8,8.4-4.8,15v30.4h-7.2V28.8h7.2v29.3c1.8-3.3,4.4-5.9,7.8-7.8
					c3.4-1.8,7.3-2.8,11.6-2.8C130.1,47.5,133.9,48.4,137.3,50.2z"/>
				<path class="st8" d="M214.3,79.2H168c0.2,4.2,1.2,7.8,3.1,10.8c1.8,3,4.3,5.3,7.3,6.8c3,1.5,6.3,2.3,9.8,2.3
					c4.6,0,8.5-1.1,11.7-3.4c3.2-2.2,5.3-5.3,6.3-9.1h7.6c-1.4,5.4-4.3,9.9-8.7,13.3c-4.5,3.4-10.1,5.2-16.8,5.2
					c-5.2,0-9.9-1.2-14.1-3.5c-4.2-2.3-7.4-5.7-9.8-10s-3.5-9.4-3.5-15.2s1.2-10.9,3.5-15.2c2.3-4.4,5.5-7.7,9.7-10
					c4.2-2.3,8.9-3.5,14.2-3.5c5.3,0,10,1.2,13.9,3.5c4,2.3,7,5.4,9.2,9.3c2.1,3.9,3.2,8.3,3.2,13C214.5,76.1,214.4,77.9,214.3,79.2
					z M204.7,62.8c-1.7-2.9-4.1-5.1-7.1-6.6c-3-1.5-6.3-2.2-9.8-2.2c-5.3,0-9.8,1.7-13.6,5.1c-3.7,3.4-5.8,8.2-6.2,14.4h39.2
					C207.3,69.2,206.5,65.7,204.7,62.8z"/>
			</g>
		</g>
		<g>
			
				<image style="overflow:visible;opacity:0.4;" width="844" height="327" xlink:href="91B9D3FD.png"  transform="matrix(0.24 0 0 0.24 136.9328 102.3011)">
			</image>
			<g>
				<path class="st8" d="M180.8,139.7c-4,3.7-10,5.6-18.1,5.6h-14.4v30.4h-7.2v-71.4h21.6c8,0,14,1.9,18,5.6
					c4.1,3.7,6.1,8.7,6.1,14.9C186.8,131,184.8,135.9,180.8,139.7z M179.5,124.9c0-4.8-1.3-8.4-4-10.8c-2.7-2.5-6.9-3.7-12.8-3.7
					h-14.4v28.8h14.4C173.9,139.2,179.5,134.4,179.5,124.9z"/>
				<path class="st8" d="M249,150.6h-46.3c0.2,4.2,1.2,7.8,3.1,10.8c1.8,3,4.3,5.3,7.3,6.8c3,1.5,6.3,2.3,9.8,2.3
					c4.6,0,8.5-1.1,11.7-3.4c3.2-2.2,5.3-5.3,6.3-9.1h7.6c-1.4,5.4-4.3,9.9-8.7,13.3c-4.5,3.4-10.1,5.2-16.8,5.2
					c-5.2,0-9.9-1.2-14.1-3.5c-4.2-2.3-7.4-5.7-9.8-10s-3.5-9.4-3.5-15.2s1.2-10.9,3.5-15.2c2.3-4.4,5.5-7.7,9.7-10
					c4.2-2.3,8.9-3.5,14.2-3.5s10,1.2,13.9,3.5c4,2.3,7,5.4,9.2,9.3c2.1,3.9,3.2,8.3,3.2,13C249.2,147.4,249.2,149.3,249,150.6z
					 M239.5,134.1c-1.7-2.9-4.1-5.1-7.1-6.6c-3-1.5-6.3-2.2-9.8-2.2c-5.3,0-9.8,1.7-13.6,5.1c-3.7,3.4-5.8,8.2-6.2,14.4H242
					C242,140.6,241.2,137.1,239.5,134.1z"/>
				<path class="st8" d="M271.6,126v34.6c0,3.4,0.6,5.8,1.9,7.1c1.3,1.3,3.6,1.9,6.8,1.9h6.5v6.1h-7.7c-5,0-8.8-1.2-11.2-3.5
					c-2.5-2.3-3.7-6.2-3.7-11.6V126h-7.8v-6h7.8v-14h7.3v14h15.3v6H271.6z"/>
				<path class="st8" d="M302.2,172.1c-4.1-3-6.3-7-6.8-12.1h7.4c0.3,3.1,1.8,5.7,4.4,7.6c2.6,1.9,6.1,2.9,10.6,2.9
					c3.9,0,6.9-0.9,9.1-2.8c2.2-1.8,3.3-4.1,3.3-6.8c0-1.9-0.6-3.5-1.8-4.7c-1.2-1.2-2.8-2.2-4.6-2.9c-1.9-0.7-4.4-1.5-7.6-2.3
					c-4.2-1.1-7.5-2.2-10.1-3.3c-2.6-1.1-4.8-2.7-6.6-4.9c-1.8-2.1-2.7-5-2.7-8.6c0-2.7,0.8-5.2,2.5-7.6c1.6-2.3,3.9-4.2,6.9-5.5
					c3-1.4,6.4-2,10.2-2c6,0,10.8,1.5,14.5,4.5c3.7,3,5.7,7.2,5.9,12.5h-7.2c-0.2-3.3-1.5-5.9-3.8-7.9c-2.4-2-5.6-3-9.7-3
					c-3.6,0-6.5,0.9-8.8,2.6c-2.2,1.7-3.4,3.8-3.4,6.3c0,2.2,0.7,4,2,5.4c1.3,1.4,3,2.5,5,3.3c2,0.8,4.6,1.7,8,2.6
					c4,1.1,7.2,2.1,9.6,3.2c2.4,1,4.4,2.5,6.1,4.5c1.7,2,2.6,4.6,2.7,7.9c0,3-0.8,5.7-2.5,8c-1.6,2.3-3.9,4.2-6.8,5.6
					c-2.9,1.4-6.3,2-10.1,2C311.5,176.5,306.3,175.1,302.2,172.1z"/>
			</g>
		</g>
		<g>
			
				<image style="overflow:visible;opacity:0.4;" width="2080" height="627" xlink:href="91B9D3FE.png"  transform="matrix(0.24 0 0 0.24 94.2128 169.2612)">
			</image>
			<g>
				<path class="st8" d="M190.5,175.7l-20.2,71.4h-8l-18-60.9L126,247.1l-7.8,0.1l-19.8-71.5h7.7l16.3,62.6l18.3-62.6h8l17.8,62.6
					l16.4-62.6H190.5z"/>
				<path class="st8" d="M211.7,244.4c-4.2-2.3-7.5-5.7-9.9-10c-2.4-4.3-3.6-9.4-3.6-15.2s1.2-10.8,3.7-15.2c2.5-4.3,5.8-7.7,10-10
					c4.2-2.3,9-3.5,14.2-3.5c5.2,0,10,1.2,14.3,3.5s7.6,5.7,10,10c2.4,4.3,3.6,9.4,3.6,15.2c0,5.7-1.2,10.8-3.7,15.1
					c-2.5,4.4-5.8,7.7-10.1,10.1c-4.3,2.3-9.1,3.5-14.3,3.5C220.6,247.9,215.9,246.7,211.7,244.4z M236.1,239.2
					c3.1-1.7,5.7-4.2,7.6-7.6c1.9-3.4,2.9-7.5,2.9-12.4s-1-9-2.9-12.4c-1.9-3.4-4.4-5.9-7.6-7.6c-3.1-1.7-6.5-2.5-10.2-2.5
					s-7.1,0.8-10.2,2.5c-3.1,1.7-5.6,4.2-7.5,7.6c-1.9,3.4-2.8,7.5-2.8,12.4s0.9,9,2.8,12.4c1.9,3.4,4.4,5.9,7.5,7.6
					c3.1,1.7,6.5,2.5,10.2,2.5C229.6,241.7,233,240.8,236.1,239.2z"/>
				<path class="st8" d="M281.4,193.1c3.2-1.9,7.2-2.9,11.9-2.9v7.5h-1.9c-5.2,0-9.3,1.4-12.5,4.2c-3.1,2.8-4.7,7.5-4.7,14v31.2H267
					v-55.8h7.2v9.9C275.8,197.7,278.2,195,281.4,193.1z"/>
				<path class="st8" d="M334.2,247.1l-23-25v25H304v-75.6h7.2v44.7l22.5-24.9h10l-26.5,27.8l26.7,28H334.2z"/>
				<path class="st8" d="M356.6,243.4c-4.1-3-6.3-7-6.8-12.1h7.4c0.3,3.1,1.8,5.7,4.4,7.6c2.6,1.9,6.1,2.9,10.6,2.9
					c3.9,0,6.9-0.9,9.1-2.8c2.2-1.8,3.3-4.1,3.3-6.8c0-1.9-0.6-3.5-1.8-4.7c-1.2-1.2-2.8-2.2-4.6-2.9c-1.9-0.7-4.4-1.5-7.6-2.3
					c-4.2-1.1-7.5-2.2-10.1-3.3c-2.6-1.1-4.8-2.7-6.6-4.9c-1.8-2.1-2.7-5-2.7-8.6c0-2.7,0.8-5.2,2.5-7.6c1.6-2.3,3.9-4.2,6.9-5.5
					c3-1.4,6.4-2,10.2-2c6,0,10.8,1.5,14.5,4.5c3.7,3,5.7,7.2,5.9,12.5H384c-0.2-3.3-1.5-5.9-3.8-7.9c-2.4-2-5.6-3-9.7-3
					c-3.6,0-6.5,0.9-8.8,2.6c-2.2,1.7-3.4,3.8-3.4,6.3c0,2.2,0.7,4,2,5.4c1.3,1.4,3,2.5,5,3.3c2,0.8,4.6,1.7,8,2.6
					c4,1.1,7.2,2.1,9.6,3.2c2.4,1,4.4,2.5,6.1,4.5c1.7,2,2.6,4.6,2.7,7.9c0,3-0.8,5.7-2.5,8c-1.6,2.3-3.9,4.2-6.8,5.6
					c-2.9,1.4-6.3,2-10.1,2C365.9,247.9,360.6,246.4,356.6,243.4z"/>
				<path class="st8" d="M443.1,192.9c3.4,1.8,6,4.5,8,8.1c1.9,3.6,2.9,8.1,2.9,13.3v32.7h-7v-31.9c0-6.1-1.5-10.7-4.5-13.9
					c-3-3.2-7.2-4.8-12.4-4.8c-5.4,0-9.7,1.7-12.9,5.1s-4.8,8.4-4.8,15v30.4h-7.2v-75.6h7.2v29.3c1.8-3.3,4.4-5.9,7.8-7.8
					c3.4-1.8,7.3-2.8,11.6-2.8C436,190.3,439.8,191.2,443.1,192.9z"/>
				<path class="st8" d="M480.1,244.4c-4.2-2.3-7.5-5.7-9.9-10c-2.4-4.3-3.6-9.4-3.6-15.2s1.2-10.8,3.7-15.2c2.5-4.3,5.8-7.7,10-10
					c4.2-2.3,9-3.5,14.2-3.5c5.2,0,10,1.2,14.3,3.5c4.3,2.3,7.6,5.7,10,10c2.4,4.3,3.6,9.4,3.6,15.2c0,5.7-1.2,10.8-3.7,15.1
					c-2.5,4.4-5.8,7.7-10.1,10.1c-4.3,2.3-9.1,3.5-14.3,3.5C489,247.9,484.3,246.7,480.1,244.4z M504.5,239.2
					c3.1-1.7,5.7-4.2,7.6-7.6c1.9-3.4,2.9-7.5,2.9-12.4s-1-9-2.9-12.4c-1.9-3.4-4.4-5.9-7.6-7.6c-3.1-1.7-6.5-2.5-10.2-2.5
					s-7.1,0.8-10.2,2.5c-3.1,1.7-5.6,4.2-7.5,7.6c-1.9,3.4-2.8,7.5-2.8,12.4s0.9,9,2.8,12.4c1.9,3.4,4.4,5.9,7.5,7.6
					c3.1,1.7,6.5,2.5,10.2,2.5C497.9,241.7,501.3,240.8,504.5,239.2z"/>
				<path class="st8" d="M550.9,194.2c3.8-2.5,8.4-3.7,13.7-3.7c5,0,9.6,1.2,13.6,3.5c4.1,2.3,7.2,5.7,9.5,10
					c2.3,4.3,3.4,9.3,3.4,15.1s-1.1,10.8-3.4,15.1c-2.3,4.4-5.5,7.7-9.5,10.1c-4.1,2.4-8.6,3.6-13.6,3.6c-5.2,0-9.8-1.2-13.7-3.7
					c-3.9-2.5-6.7-5.6-8.5-9.3v80.7h-7V191.3h7v12.3C544.2,199.8,547.1,196.7,550.9,194.2z M581.2,207.1c-1.8-3.4-4.3-5.9-7.4-7.7
					c-3.1-1.8-6.7-2.7-10.6-2.7c-3.8,0-7.3,0.9-10.5,2.8c-3.2,1.8-5.7,4.5-7.5,7.9c-1.8,3.4-2.8,7.4-2.8,11.9s0.9,8.4,2.8,11.9
					c1.8,3.4,4.3,6,7.5,7.9c3.2,1.8,6.7,2.8,10.5,2.8c3.9,0,7.5-0.9,10.6-2.7c3.1-1.8,5.6-4.4,7.4-7.9c1.8-3.4,2.7-7.4,2.7-12
					C584,214.4,583,210.4,581.2,207.1z"/>
			</g>
		</g>
		<g>
			<path class="st8" d="M247.9,68.7c-3.3-2.1-6.7-4.2-10.2-5.9c-1.8-0.9-3.7-1.7-5.7-2c-1.7-0.2-3.4-0.1-5.1,0.2
				c-0.8,0.2-1.6,0.3-2.3,0.5l-1.6,0.3c0,0,0,0,0,0c-0.8,0.1-1.5,0.2-2.3,0.3l-0.4,0c-1.5,0.1-3-0.1-4.5-0.5
				c-0.2-0.1-0.4-0.1-0.6-0.2c-2.6-1-4.8-2.5-6.5-4.8c-2.2-3.1-2.9-6.4-1.7-10.1c0.9-2.5,2.6-4.3,5-5.5c1.4-0.7,2.9-1.1,4.9-1.3
				c4.8-0.1,9,1.8,12.1,6.2c0.7,1,1.2,2.1,1.5,3.2c0.3,0.9,0.4,1.8,0.5,2.8l0,0.2c3,2.3,5.9,4.7,9,6.8c2.3,1.5,4.7,2.9,7,4.3
				c2.3,1.4,4.6,2.7,6.9,3.9c0.9,0.5,1.8,0.9,2.7,1.2c0.2,0.1,0.4,0.1,0.6,0.1c2.3,0,4.7,0,7,0c0.2,0,0.5,0.1,0.6,0.2
				c8,7.1,15.9,14.2,23.9,21.3c6.4,5.7,12.7,11.3,19.1,17c4.1,3.6,8.1,7.3,12.2,10.9c0.2,0.1,0.4,0.3,0.3,0.6
				c-0.1,0.3-0.3,0.4-0.6,0.4c-0.9,0.1-1.7-0.3-2.5-0.6c-2.6-1.2-4.9-3-7.3-4.6c-3.5-2.4-6.9-4.9-10.4-7.3
				c-5.8-4.1-11.7-8.2-17.4-12.6c-4.5-3.5-9-6.9-13.4-10.5c-2.7-2.2-5.3-4.3-8.1-6.3c-3.1-2.2-6.3-4.2-9.5-6.2L247.9,68.7z
				 M274.7,79.3c-0.1-1.1-1-2-2.1-2.3c-1.8-0.4-3.3,1.1-3.2,2.8c0.1,1.4,1.4,2.5,2.9,2.4C273.9,82.1,274.9,80.8,274.7,79.3z
				 M208.9,53.5c0.7,1.6,1.8,3,3.1,4.1c2.8,2.3,6,3.3,9.7,2.5c3.4-0.7,5.7-2.7,6.7-6c1-3.6,0-6.7-2.5-9.3c-3-3.2-6.8-4.5-11.2-3.5
				c-2.3,0.5-4.1,1.8-5.4,3.8C207.7,47.8,207.7,50.6,208.9,53.5z"/>
			<path class="st8" d="M265.7,67.8c-2.5,0-5-0.1-7.4-0.1c-0.3,0-0.5-0.1-0.6-0.3c-2.3-2.9-4.8-5.8-6.9-8.8
				c-2.4-3.5-5.3-6.5-8.1-9.5c-1.3-1.5-2.8-2.8-4.4-4c-0.3-0.2-0.5-0.3-0.8-0.2c-5,0.3-8.8-1.8-11.7-5.8c-1.9-2.6-2.7-5.6-2.4-8.8
				c0.4-3.4,1.9-6.1,5-7.7c3.5-2,7.1-1.7,10.6,0c2.6,1.2,4.6,3.2,6,5.7c1.4,2.6,2,5.3,1.6,8.2c-0.1,0.9-0.4,1.7-0.7,2.6
				c-0.2,0.5-0.2,1-0.2,1.6c-0.2,2.2,0.3,4.3,1.3,6.3c1.6,3.2,3.9,5.8,6.2,8.4c3.9,4.3,8.1,8.4,12.4,12.3
				C265.5,67.5,265.6,67.6,265.7,67.8z M225.2,32.7c0.1,1.7,0.7,3.3,1.6,4.7c1.9,3,4.5,4.9,8.1,5.4c3.3,0.4,6.1-0.6,8.1-3.4
				c2.1-3,2.1-6.2,0.7-9.4c-1.8-3.9-4.8-6.3-9.2-6.8c-2.3-0.2-4.4,0.4-6.2,1.8C225.9,27,225,29.7,225.2,32.7z"/>
			<path class="st8" d="M319,116.3c-17.8-15.9-35.6-31.8-53.5-47.7c0.8-0.1,1.4,0.1,1.9,0.5c4.6,4.1,9.3,8.1,13.9,12.2
				c4.7,4.1,9.3,8.3,13.9,12.6c4.7,4.5,9.5,8.9,14.3,13.3c3.1,2.8,6.3,5.7,9.3,8.7C318.8,115.9,319,116.1,319,116.3
				C319,116.2,319,116.2,319,116.3z"/>
		</g>
	</g>
	<g>
		<g>
			<g>
				<path class="st1" d="M453,105.7c0,0,11.2-11.3,13.7-10.9c2.6,0.4,12.4,11.7,6.6,33.6C473.3,128.3,456.9,115.7,453,105.7z"/>
				<path class="st8" d="M472.5,129.4c-0.7-0.5-16.8-13-20.7-23.2c-0.2-0.5-0.1-1.1,0.3-1.4c0,0,2.8-2.8,5.8-5.5
					c5.7-5.1,7.6-5.8,8.8-5.8c0.1,0,0.2,0,0.3,0c1.4,0.2,3.3,1.9,4.9,4.4c2.3,3.6,7.3,13.8,2.8,30.8c-0.1,0.4-0.4,0.8-0.9,0.9
					c-0.1,0-0.3,0.1-0.4,0.1C473,129.7,472.7,129.6,472.5,129.4z M459.6,101.3c-2.1,1.9-4,3.7-4.9,4.7c3.4,7.6,13.8,16.6,17.9,19.9
					c3.2-14.1-0.6-22.7-2.4-25.8c-1.6-2.7-3.1-3.8-3.5-4C466.3,96.2,464.7,96.7,459.6,101.3z"/>
			</g>
			<g>
				<path class="st1" d="M429.6,98.7c0,0-3.1-15.6-5.4-16.7c-2.4-1.1-16.8,3-23.9,24.4C400.3,106.4,420.9,104.9,429.6,98.7z"/>
				<path class="st8" d="M400.3,107.8c-0.8,0-1.4-0.6-1.4-1.4c0-0.2,0-0.4,0.1-0.5c3.6-10.8,9-16.9,12.8-20.1
					c4.7-3.9,9.1-5.3,11.4-5.3c0.6,0,1.1,0.1,1.5,0.3c1.1,0.5,2.3,2,4.4,9.6c1.1,4,1.8,8,1.9,8c0.1,0.5-0.1,1.1-0.5,1.4
					c-8.9,6.4-29.2,7.9-30.1,8C400.3,107.8,400.3,107.8,400.3,107.8C400.3,107.8,400.3,107.8,400.3,107.8z M426.6,91.4
					c-1.7-6.6-2.7-8-3-8.2c-0.1,0-0.2,0-0.4,0c-1.4,0-5.3,1-9.7,4.7c-3.3,2.8-7.9,8-11.3,17c5.2-0.5,18.9-2.3,25.9-6.8
					C427.9,96.8,427.3,94.1,426.6,91.4z"/>
			</g>
			<g>
				<path class="st1" d="M360.5,171.3c-1.3-7.1,0.7-14.2,1.8-19.4c0.1-0.6-2.5,1.7-2.5,1.1c0-4.9,5.3-10.8,5.3-10.8l-2.6-0.1
					c2.1-4.8,7.7-9.1,7.7-9.1l-2.4-0.7c3.8-4.4,8.3-6.6,8.3-6.6l-2.3-0.7c3.6-5.2,7.6-5.2,7.6-5.2l-2.1-0.9
					c11.9-13,19.9-13.7,19.9-13.7l-2.7-0.5c7.2-8.5,16-10.9,16-10.9l-2-1c20.5-5.7,31.9,3.8,31.9,3.8s14.7-1.7,28.7,14.3l-2.2-0.2
					c0,0,6.1,6.9,7.4,17.9l-2.5-1.1c0,0,6.3,5,9.1,22.4l-2.2-0.4c0,0,3.4,2.3,3.5,8.5l-2.3-0.7c0,0,2.6,4.3,3.4,10.1l-2.2-0.7
					c0,0,1,2.2,1.9,4.1"/>
				<path class="st8" d="M360.5,172.7c0.1,0,0.2,0,0.2,0c0.7-0.1,1.2-0.8,1.1-1.6c-1-5.8,0.2-11.8,1.3-16.6c0.2-0.8,0.3-1.6,0.5-2.3
					c0.1-0.6-0.1-1.2-0.6-1.5c-0.5-0.3-1-0.3-1.4-0.1c1.2-3.7,4.5-7.3,4.5-7.4c0.4-0.4,0.5-1,0.2-1.5c-0.2-0.5-0.7-0.8-1.2-0.8
					l-0.4,0c2.3-3.7,6.2-6.7,6.3-6.8c0.4-0.3,0.6-0.8,0.5-1.3c-0.1-0.5-0.5-0.9-1-1.1l-0.2-0.1c3.2-3.1,6.4-4.6,6.4-4.6
					c0.5-0.2,0.8-0.8,0.8-1.3c0-0.6-0.4-1-1-1.2l-0.4-0.1c2.6-2.9,5.1-3.1,5.3-3.1c0,0,0,0,0,0c0.6,0,1.2-0.5,1.3-1.1
					c0.1-0.6-0.2-1.3-0.8-1.5l-0.2-0.1c5.3-5.5,9.7-8.4,12.5-9.9c3.3-1.7,5.2-1.9,5.2-1.9c0.7-0.1,1.2-0.6,1.2-1.3
					c0-0.7-0.5-1.3-1.1-1.4l-0.3,0c6.5-6.6,13.6-8.7,13.7-8.7c0.5-0.1,0.9-0.6,1-1.2c0-0.2,0-0.4-0.1-0.6c8.8-1.9,15.5-0.9,19.8,0.4
					c5.1,1.6,7.9,3.8,7.9,3.8c0.3,0.2,0.7,0.4,1,0.3c0,0,3.6-0.4,8.7,1.1c4.3,1.3,10.5,4.1,16.8,10.5c-0.2,0.1-0.3,0.3-0.4,0.5
					c-0.3,0.5-0.2,1.1,0.2,1.5c0.1,0.1,4.9,5.7,6.7,14.8l-0.2-0.1c-0.6-0.3-1.4,0-1.7,0.6c-0.3,0.6-0.2,1.3,0.3,1.8
					c0,0,1.5,1.2,3.3,4.5c1.5,2.8,3.6,7.6,5,15.1l-0.3,0c-0.6-0.1-1.3,0.2-1.5,0.8c-0.2,0.6,0,1.3,0.5,1.6c0.2,0.1,2.2,1.6,2.8,5.5
					l-0.4-0.1c-0.5-0.2-1.1,0-1.5,0.5c-0.3,0.4-0.4,1.1-0.1,1.5c0,0,1.8,3.1,2.8,7.4l-0.1,0c-0.5-0.2-1.1,0-1.4,0.4
					c-0.4,0.4-0.4,1-0.2,1.5c0,0.1,1,2.3,2,4.2c0.3,0.7,1.2,1,1.8,0.6c0.7-0.3,1-1.2,0.6-1.8c-0.2-0.5-0.5-1-0.7-1.5
					c0.3,0,0.5-0.1,0.7-0.3c0.4-0.3,0.5-0.8,0.5-1.2c-0.4-3.2-1.4-6-2.2-7.9c0.2,0,0.4-0.1,0.6-0.3c0.3-0.3,0.5-0.7,0.5-1.1
					c-0.1-3.2-0.9-5.5-1.8-7c0,0,0.1-0.1,0.1-0.1c0.3-0.3,0.5-0.8,0.4-1.2c-1.7-10.7-4.8-16.9-7-20.1c0.3-0.3,0.4-0.7,0.4-1.1
					c-0.9-7.6-4-13.3-6-16.3c0.3-0.1,0.5-0.3,0.7-0.6c0.3-0.5,0.2-1.1-0.2-1.5c-3.3-3.8-6.9-6.9-10.7-9.3c-3.1-1.9-6.3-3.4-9.6-4.3
					c-4.4-1.3-7.8-1.3-9.1-1.2c-1-0.8-3.8-2.6-8.3-3.9c-3.3-1-6.7-1.6-10.4-1.6c-4.5-0.1-9.2,0.5-14,1.9c-0.5,0.2-0.9,0.6-1,1.2
					c0,0.3,0,0.6,0.2,0.9c-3.3,1.4-9,4.5-13.9,10.3c-0.3,0.3-0.4,0.7-0.3,1.1c-3.6,1.5-9.6,5-16.9,13c-0.3,0.3-0.4,0.8-0.3,1.2
					c0,0,0,0.1,0,0.1c-1.6,0.8-3.6,2.2-5.4,4.9c-0.2,0.4-0.3,0.8-0.2,1.2c0.1,0.2,0.2,0.4,0.4,0.5c-1.7,1.1-4,2.9-6.1,5.4
					c-0.3,0.4-0.4,0.8-0.3,1.3c0.1,0.4,0.4,0.7,0.8,0.9c-1.9,1.8-4.7,4.7-6.1,8c-0.2,0.4-0.1,0.9,0.1,1.3c0.2,0.3,0.6,0.6,0.9,0.6
					c-1.7,2.3-3.9,6-3.9,9.5c0,0.5,0.3,1,0.8,1.3c0.4,0.2,0.8,0.2,1.1,0.1c-1.1,5-2.3,11-1.2,17.1
					C359.3,172.2,359.9,172.7,360.5,172.7z"/>
			</g>
			<g>
				<path class="st8" d="M453.6,150.6c0,0-4.9,13.6-20.3,13.3c-15.4-0.3-31.3-4.5-29.2-28.1C404.1,135.8,444.9,145.5,453.6,150.6z"
					/>
			</g>
			<g>
				<path class="st8" d="M423.8,122c-1.2,4.1,1.2,13.3,7.1,15.1c5.9,1.8,13-4.6,14.2-8.7c1.2-4.1-2.7-8.3-8.6-10.1
					C430.7,116.5,425.1,117.8,423.8,122z"/>
			</g>
			<g>
				<path class="st8" d="M409.7,125.6c0,0,0.7-0.6,2.1-1.4c0.7-0.4,1.5-0.9,2.5-1.5c1-0.5,2.1-1.1,3.3-1.7c1.2-0.6,2.6-1.1,4-1.5
					c1.5-0.5,3-0.8,4.6-1.1c0.1,0,0.2,0,0.3,0c0.1,0,0.2,0,0.3,0c0.2,0,0.4,0,0.6-0.1c0.2,0,0.4,0,0.6,0c0.2,0,0.4,0,0.6,0
					c0.1,0,0.2,0,0.3,0l0.3,0c0.2,0,0.4,0,0.6,0c0.4,0,0.8,0,1.3,0c0.4,0,0.8,0.1,1.3,0.1c0.2,0,0.4,0.1,0.6,0.1
					c0.2,0,0.4,0.1,0.6,0.1c0.4,0.1,0.8,0.2,1.3,0.3l0.6,0.2l0.3,0.1l0.2,0l0.1,0l0,0l0,0c0,0,0.1,0,0,0c0.4,0.1,0.9,0.3,1.3,0.4
					c0.4,0.2,0.8,0.3,1.2,0.5c0.4,0.2,0.8,0.4,1.2,0.5c0.4,0.2,0.8,0.4,1.1,0.6c0.4,0.2,0.7,0.4,1.1,0.7c0.2,0.1,0.4,0.2,0.5,0.4
					l0.3,0.2c0.1,0.1,0.2,0.1,0.3,0.2c0.2,0.1,0.3,0.3,0.5,0.4c0.2,0.1,0.3,0.2,0.5,0.4c0.2,0.1,0.3,0.3,0.5,0.4l0.2,0.2
					c0.1,0.1,0.2,0.1,0.2,0.2c1.2,1.1,2.3,2.3,3.3,3.4c0.1,0.1,0.2,0.3,0.4,0.4c0.1,0.1,0.2,0.3,0.3,0.4c0.1,0.1,0.2,0.3,0.3,0.4
					c0.1,0.1,0.2,0.3,0.3,0.4c0.1,0.1,0.2,0.3,0.3,0.4c0.1,0.1,0.2,0.3,0.3,0.4c0.1,0.1,0.2,0.3,0.3,0.4c0.1,0.1,0.2,0.3,0.3,0.4
					c0.7,1.1,1.3,2.2,1.8,3.2c0.5,1,0.9,1.9,1.3,2.6c0.3,0.7,0.6,1.3,0.7,1.7c0.2,0.4,0.2,0.6,0.2,0.6s0-0.2-0.1-0.7
					c-0.1-0.4-0.2-1.1-0.4-1.8c-0.2-0.8-0.4-1.7-0.8-2.8c-0.4-1.1-0.8-2.3-1.4-3.6c-0.1-0.2-0.2-0.3-0.2-0.5
					c-0.1-0.2-0.2-0.3-0.3-0.5c-0.1-0.2-0.2-0.3-0.3-0.5c-0.1-0.2-0.2-0.3-0.3-0.5c-0.1-0.2-0.2-0.3-0.3-0.5
					c-0.1-0.2-0.2-0.3-0.3-0.5c-0.1-0.2-0.2-0.3-0.3-0.5c-0.1-0.2-0.2-0.3-0.3-0.5c-0.9-1.3-2-2.7-3.3-4c-0.1-0.1-0.2-0.2-0.2-0.2
					l-0.2-0.2c-0.2-0.2-0.3-0.3-0.5-0.5c-0.2-0.2-0.3-0.3-0.5-0.4c-0.2-0.1-0.4-0.3-0.5-0.4c-0.1-0.1-0.2-0.1-0.3-0.2l-0.3-0.2
					c-0.2-0.1-0.4-0.3-0.6-0.4c-0.4-0.3-0.8-0.5-1.2-0.8c-0.4-0.2-0.8-0.5-1.3-0.7c-0.4-0.2-0.9-0.4-1.3-0.6
					c-0.5-0.2-0.9-0.4-1.4-0.6c-0.4-0.1-0.9-0.3-1.3-0.4c-0.1,0,0,0-0.1,0l0,0l0,0l-0.1,0l-0.2,0l-0.4-0.1l-0.7-0.2
					c-0.5-0.1-1-0.2-1.4-0.3c-0.5-0.1-1-0.1-1.4-0.2c-0.5,0-1-0.1-1.4-0.1c-0.5,0-1,0-1.4,0c-0.2,0-0.5,0-0.7,0l-0.4,0
					c-0.1,0-0.2,0-0.3,0c-0.2,0-0.5,0-0.7,0.1c-0.2,0-0.5,0-0.7,0.1c-0.2,0-0.5,0.1-0.7,0.1c-0.1,0-0.2,0-0.3,0.1
					c-0.1,0-0.2,0-0.3,0.1c-1.8,0.4-3.4,0.9-4.9,1.5c-1.5,0.6-2.9,1.3-4.1,2.1c-1.2,0.7-2.3,1.5-3.2,2.2c-0.9,0.7-1.6,1.4-2.2,1.9
					c-0.6,0.6-1,1-1.3,1.3C409.9,125.4,409.7,125.6,409.7,125.6z"/>
			</g>
			<g>
				<g>
					<path class="st1" d="M403.2,132.1c0,0-1.1,8.8,9.5,12c10.6,3.2,16.5-1.2,16.5-1.2s2.5,6.8,13.1,10s14.5-4.8,14.5-4.8"/>
				</g>
				<g>
					<path class="st8" d="M403.2,132.1c-0.1,0.3-0.1,0.7-0.1,1.1c0,0.4,0,0.7,0,1.1c0,0.7,0.1,1.4,0.3,2.1c0.2,0.7,0.4,1.4,0.7,2.1
						c0.3,0.7,0.7,1.3,1.2,1.9c0.5,0.6,1,1.1,1.5,1.6c0.3,0.2,0.6,0.5,0.9,0.7c0.2,0.1,0.3,0.2,0.5,0.3l0.5,0.3
						c0.1,0.1,0.2,0.1,0.2,0.2l0.2,0.1l0.5,0.3c0.2,0.1,0.3,0.2,0.5,0.2c0.2,0.1,0.3,0.2,0.5,0.2l0.5,0.2c0.2,0.1,0.3,0.1,0.5,0.2
						l0.5,0.2l0.3,0.1l0,0l0,0l0,0l0,0l0.1,0l0.1,0l0.5,0.2l0.3,0.1l0.3,0.1c0.4,0.1,0.7,0.2,1.1,0.3c0.4,0.1,0.7,0.2,1.1,0.2
						l0.5,0.1l0.5,0.1c0.4,0.1,0.7,0.1,1.1,0.2c0.4,0,0.7,0.1,1.1,0.1c0.7,0,1.5,0.1,2.2,0c0.7,0,1.5-0.1,2.2-0.2
						c0.7-0.1,1.5-0.3,2.2-0.4c0.7-0.2,1.5-0.4,2.2-0.7c0.4-0.1,0.7-0.3,1.1-0.5c0.2-0.1,0.3-0.2,0.5-0.3c0.1-0.1,0.2-0.1,0.3-0.2
						l0.1-0.1l0.1,0l0.1-0.1l-2.1-0.6l0,0.1l0,0.1l0.1,0.1c0,0.1,0.1,0.2,0.1,0.3c0.1,0.2,0.2,0.4,0.3,0.5c0.2,0.3,0.4,0.7,0.6,1
						c0.4,0.6,0.9,1.2,1.4,1.8c0.5,0.6,1,1.1,1.6,1.6c0.6,0.5,1.1,1,1.8,1.4c0.6,0.4,1.2,0.8,1.9,1.2c0.2,0.1,0.3,0.2,0.5,0.3
						c0.2,0.1,0.3,0.2,0.5,0.3c0.3,0.2,0.7,0.3,1,0.5l0.5,0.2l0.5,0.2c0.3,0.1,0.7,0.3,1,0.4c0.7,0.2,1.4,0.5,2.1,0.6l0.1,0l0.1,0
						l0,0l0,0l0,0l0,0l0.3,0.1l0.5,0.1c0.2,0,0.4,0.1,0.5,0.1l0.6,0.1c0.2,0,0.4,0,0.6,0.1c0.2,0,0.4,0,0.6,0.1l0.6,0l0.3,0
						c0.1,0,0.2,0,0.3,0l0.6,0c0.2,0,0.4,0,0.6,0c0.4,0,0.7-0.1,1.1-0.1c0.7-0.1,1.5-0.3,2.2-0.5c0.7-0.3,1.4-0.6,2-0.9
						c0.6-0.4,1.2-0.8,1.8-1.3c0.5-0.5,1-1,1.4-1.6c0.2-0.3,0.4-0.6,0.6-0.9c0.2-0.3,0.3-0.6,0.5-1c-0.4,0.6-0.9,1.1-1.4,1.6
						c-0.5,0.5-1,0.9-1.6,1.3c-0.6,0.4-1.2,0.7-1.8,1c-0.6,0.3-1.2,0.5-1.9,0.6c-0.6,0.1-1.3,0.2-2,0.2c-0.3,0-0.7,0-1,0
						c-0.2,0-0.3,0-0.5,0l-0.5-0.1c-0.1,0-0.2,0-0.2,0l-0.2,0l-0.5-0.1c-0.2,0-0.3-0.1-0.5-0.1c-0.2,0-0.3-0.1-0.5-0.1l-0.5-0.1
						c-0.2,0-0.3-0.1-0.5-0.1l-0.5-0.2l-0.3-0.1l-0.2-0.1c-0.6-0.2-1.3-0.5-1.9-0.7l-0.5-0.2c-0.2-0.1-0.3-0.1-0.5-0.2l-0.5-0.2
						l-0.4-0.2c-0.3-0.1-0.6-0.3-0.9-0.5c-0.3-0.2-0.6-0.3-0.9-0.5c-0.6-0.3-1.1-0.7-1.6-1.1c-0.5-0.4-1-0.8-1.5-1.3
						c-0.5-0.4-0.9-0.9-1.4-1.4c-0.4-0.5-0.8-1-1.2-1.5c-0.2-0.3-0.3-0.5-0.5-0.8c-0.1-0.1-0.1-0.3-0.2-0.4c0-0.1-0.1-0.1-0.1-0.2
						l0-0.1l0,0c0,0,0,0,0,0l-2.1-0.6l-0.1,0l-0.1,0.1c-0.1,0-0.1,0.1-0.2,0.1c-0.1,0.1-0.3,0.2-0.4,0.2c-0.3,0.1-0.6,0.3-0.8,0.4
						c-0.6,0.3-1.2,0.5-1.8,0.6c-0.6,0.2-1.3,0.3-1.9,0.4c-0.6,0.1-1.3,0.2-2,0.2c-0.7,0-1.3,0.1-2,0c-0.2,0-0.3,0-0.5,0
						c-0.2,0-0.3,0-0.5,0c-0.3,0-0.7,0-1-0.1l-0.5-0.1l-0.5-0.1c-0.2,0-0.3,0-0.5-0.1l-0.5-0.1c-0.3-0.1-0.7-0.1-1-0.2l-0.2-0.1
						l-0.3-0.1l-0.5-0.1l-0.1,0l-0.1,0l0,0c0,0,0,0,0,0l0,0l0,0l-0.2-0.1l-0.5-0.1c-0.2,0-0.3-0.1-0.5-0.1l-0.5-0.2
						c-0.2-0.1-0.3-0.1-0.5-0.2c-0.2-0.1-0.3-0.1-0.5-0.2L410,142l-0.2-0.1c-0.1,0-0.1-0.1-0.2-0.1l-0.4-0.2
						c-0.1-0.1-0.3-0.2-0.4-0.2c-0.3-0.2-0.5-0.4-0.8-0.5c-0.5-0.4-1-0.8-1.5-1.3c-0.5-0.5-0.9-1-1.2-1.5c-0.4-0.6-0.7-1.2-1-1.8
						c-0.3-0.6-0.5-1.3-0.6-2C403.4,133.5,403.3,132.8,403.2,132.1z"/>
				</g>
			</g>
			<g>
				<path class="st8" d="M429.2,144.3c0.6,0,1.1-0.4,1.3-1l3.2-10.6c0.2-0.7-0.2-1.5-0.9-1.7c-0.7-0.2-1.5,0.2-1.7,0.9l-3.2,10.6
					c-0.2,0.7,0.2,1.5,0.9,1.7C428.9,144.3,429.1,144.3,429.2,144.3z"/>
			</g>
			<g>
				<path class="st8" d="M459.1,128.8c0.3,0,0.5-0.1,0.8-0.2c0.6-0.4,0.8-1.3,0.3-1.9c-3.8-5.5-12.1-3.6-12.4-3.5
					c-0.7,0.2-1.2,0.9-1,1.6c0.2,0.7,0.9,1.2,1.6,1c0.1,0,6.8-1.5,9.6,2.4C458.2,128.6,458.7,128.8,459.1,128.8z"/>
			</g>
			<g>
				<path class="st8" d="M420.8,117.9L420.8,117.9l2.6-0.8c-0.1-0.3-2-6.2-12.1-6.5c-0.8,0-1.4,0.6-1.4,1.3c0,0.8,0.6,1.4,1.3,1.4
					C419.3,113.6,420.7,117.8,420.8,117.9z"/>
			</g>
		</g>
		<g>
			<path class="st1" d="M388.5,166.7c0,0,5.2,12.3-5.7,12.3c0,0-3.9,6.9-11.8,2.7c0,0-5.2,3.5-10.6-2.4c0,0-12.5,3.2-7.9-14.3
				C356.9,147.5,386.6,155.2,388.5,166.7z"/>
			<path class="st8" d="M375.8,184.4c-1.6,0-3.2-0.4-4.9-1.2c-0.8,0.4-2.1,0.9-3.9,0.9c-1.8,0-4.5-0.6-7.2-3.3
				c-0.4,0.1-1,0.1-1.7,0.1c-2.7,0-4.9-1-6.3-2.8c-2.1-2.7-2.4-7.2-0.8-13.4c1-3.8,3.1-6.8,6.4-8.8c2.8-1.7,6.3-2.6,10.2-2.6
				c4.8,0,10,1.3,14.2,3.7c4.5,2.5,7.3,5.8,7.9,9.3c0.4,1.1,2.6,7.1,0,10.9c-1.3,1.9-3.4,3-6.4,3.1
				C382.5,181.7,380,184.4,375.8,184.4C375.8,184.4,375.8,184.4,375.8,184.4z M370.9,180.3c0.2,0,0.4,0.1,0.6,0.2
				c1.5,0.8,2.9,1.2,4.3,1.2c0,0,0,0,0,0c3.8,0,5.7-3.2,5.8-3.4c0.2-0.4,0.7-0.7,1.2-0.7c2.4,0,4-0.6,4.8-1.9c1.6-2.4,0.3-7-0.3-8.5
				c0-0.1-0.1-0.2-0.1-0.3c-0.4-2.7-2.8-5.4-6.6-7.5c-3.8-2.1-8.5-3.3-12.9-3.3c-4.3,0-11.9,1.2-13.9,9.3c-1.3,5.2-1.2,9.1,0.3,11.1
				c0.9,1.2,2.3,1.7,4.2,1.7c1,0,1.8-0.2,1.8-0.2c0.5-0.1,1,0,1.4,0.4c1.8,2,3.7,3,5.7,3c1.8,0,3.1-0.8,3.1-0.8
				C370.4,180.4,370.6,180.3,370.9,180.3z"/>
		</g>
		<g>
			<path class="st1" d="M455.9,166.7c0,0-5.2,12.3,5.7,12.3c0,0,3.9,6.9,11.8,2.7c0,0,5.2,3.5,10.6-2.4c0,0,12.5,3.2,7.9-14.3
				C487.5,147.5,457.7,155.2,455.9,166.7z"/>
			<path class="st8" d="M468.6,184.4c-4.2,0-6.7-2.8-7.7-4.1c-2.9-0.1-5.1-1.2-6.4-3.1c-2.6-3.9-0.4-9.9,0-10.9
				c0.6-3.5,3.4-6.8,7.9-9.3c4.2-2.3,9.4-3.7,14.2-3.7c3.9,0,7.5,0.9,10.2,2.6c3.2,2,5.4,4.9,6.4,8.8c1.6,6.2,1.3,10.7-0.8,13.4
				c-1.4,1.8-3.6,2.8-6.3,2.8c-0.7,0-1.2-0.1-1.7-0.1c-2.7,2.7-5.4,3.3-7.2,3.3c-1.7,0-3.1-0.5-3.9-0.9
				C471.8,184,470.1,184.4,468.6,184.4C468.6,184.4,468.6,184.4,468.6,184.4z M474.2,180.6c0,0,1.3,0.8,3.1,0.8c2,0,4-1,5.7-3
				c0.3-0.4,0.9-0.5,1.4-0.4c0,0,0.8,0.2,1.8,0.2c1.9,0,3.3-0.6,4.2-1.7c1.6-2,1.7-5.8,0.3-11.1c-2.1-8.1-9.6-9.3-13.9-9.3
				c-4.4,0-9.1,1.2-12.9,3.3c-3.8,2.1-6.2,4.8-6.6,7.5c0,0.1,0,0.2-0.1,0.3c-0.6,1.5-2,6.1-0.3,8.5c0.8,1.3,2.5,1.9,4.8,1.9
				c0.5,0,0.9,0.3,1.2,0.7c0.1,0.1,2,3.4,5.8,3.4c0,0,0,0,0,0c1.3,0,2.8-0.4,4.3-1.2c0.2-0.1,0.4-0.2,0.6-0.2
				C473.7,180.3,474,180.4,474.2,180.6z"/>
		</g>
		<g>
			<path class="st9" d="M428.3,150.8c0,0,4.2-1,6.1,1.2c1.8,2.2,4.3,5.1,4.6,8.3c0.3,3.2,7.9,11.9-1.7,14.3
				c-9.6,2.4-18.2-7.2-17.7-15.1c0.4-7.9-3.7-8.5-3-10.4C417.2,147.1,424.8,144.8,428.3,150.8z"/>
			<path class="st8" d="M423,171.1c-3.2-3.4-5-7.8-4.8-11.8c0.2-4.6-1.1-6.3-2-7.6c-0.6-0.8-1.4-1.8-0.9-3.2
				c0.7-1.8,3.7-2.9,6.3-2.9c1.8,0,5.1,0.5,7.4,3.7c0.4-0.1,1-0.1,1.6-0.1c2.2,0,3.9,0.7,4.9,1.9l0.1,0.2c1.9,2.3,4.5,5.4,4.8,8.9
				c0.1,0.6,0.6,1.7,1.1,2.8c1.3,2.8,2.9,6.3,1.5,9.3c-0.8,1.8-2.6,3-5.3,3.6c-1.1,0.3-2.2,0.4-3.3,0.4c0,0,0,0,0,0
				C430.2,176.3,426.2,174.4,423,171.1z M428.6,152.1c-0.6,0.1-1.2-0.1-1.5-0.6c-1.5-2.6-3.9-3.2-5.5-3.2c-2,0-3.4,0.7-3.7,1.1
				c0.1,0.2,0.3,0.5,0.5,0.7c1.1,1.4,2.9,3.8,2.6,9.4c-0.2,3.2,1.3,6.9,4,9.7c2.7,2.8,6,4.3,9.3,4.3c0.9,0,1.8-0.1,2.7-0.3
				c1.9-0.5,3-1.2,3.5-2.2c0.9-1.8-0.5-4.7-1.5-6.9c-0.7-1.4-1.2-2.6-1.3-3.7c-0.3-2.7-2.4-5.3-4.2-7.4l-0.1-0.2
				c-0.6-0.8-1.9-0.9-2.8-0.9C429.5,151.9,428.6,152.1,428.6,152.1z"/>
		</g>
		<g>
			<path class="st10" d="M433.3,169.2c0.4,0,0.8-0.2,1.1-0.6c0.4-0.6,0.3-1.5-0.3-1.9c-1.9-1.4-2.4-4.7-2.8-7.7
				c-0.1-0.6-0.2-1.3-0.3-1.8c-0.6-3.4-1.3-6.6-1.4-6.7c-0.2-0.7-0.9-1.2-1.6-1c-0.7,0.2-1.2,0.9-1,1.6c0,0,0.8,3.2,1.3,6.5
				c0.1,0.5,0.2,1.1,0.3,1.8c0.5,3.3,1,7.4,3.9,9.5C432.7,169.1,433,169.2,433.3,169.2z"/>
		</g>
	</g>
	<g>
		<path class="st8" d="M277.1,292.6c-0.8,0.8-2.1,1.2-3.8,1.2h-3v6.4h-1.5v-15h4.5c1.7,0,2.9,0.4,3.8,1.2c0.8,0.8,1.3,1.8,1.3,3.1
			C278.3,290.8,277.9,291.8,277.1,292.6z M276.8,289.5c0-1-0.3-1.8-0.8-2.3c-0.6-0.5-1.5-0.8-2.7-0.8h-3v6h3
			C275.6,292.5,276.8,291.5,276.8,289.5z"/>
		<path class="st8" d="M284.5,286.4v5.6h5.7v1.2h-5.7v5.7h6.3v1.2H283v-15h7.8v1.2H284.5z"/>
		<path class="st8" d="M304.7,285.2v1.2h-4.2v13.7H299v-13.7h-4.2v-1.2H304.7z"/>
		<path class="st8" d="M317.5,288.7c0.6-1.2,1.5-2.1,2.6-2.7c1.1-0.7,2.4-1,3.7-1c1.7,0,3.1,0.4,4.3,1.2c1.2,0.8,2.1,1.9,2.6,3.4
			H329c-0.4-1-1.1-1.8-2-2.4c-0.9-0.6-1.9-0.9-3.2-0.9c-1.1,0-2.1,0.3-3,0.8c-0.9,0.5-1.6,1.3-2.1,2.2c-0.5,1-0.8,2.1-0.8,3.4
			s0.3,2.4,0.8,3.3c0.5,1,1.2,1.7,2.1,2.2c0.9,0.5,1.9,0.8,3,0.8c1.2,0,2.3-0.3,3.2-0.8c0.9-0.6,1.5-1.3,2-2.3h1.8
			c-0.5,1.4-1.4,2.5-2.6,3.3c-1.2,0.8-2.6,1.2-4.3,1.2c-1.4,0-2.6-0.3-3.7-1c-1.1-0.7-2-1.6-2.6-2.7c-0.6-1.2-1-2.5-1-3.9
			S316.8,289.9,317.5,288.7z"/>
		<path class="st8" d="M344.5,296.6h-6.8l-1.3,3.6h-1.6l5.5-14.8h1.7l5.4,14.8h-1.6L344.5,296.6z M344.1,295.4l-3-8.1l-3,8.1H344.1z
			"/>
		<path class="st8" d="M359.9,300.2l-3.7-6.3h-2.8v6.3h-1.5v-15h4.5c1.7,0,2.9,0.4,3.8,1.2s1.3,1.8,1.3,3.1c0,1.1-0.3,2-0.9,2.8
			c-0.6,0.8-1.5,1.3-2.8,1.5l3.9,6.4H359.9z M353.4,292.7h3c1.2,0,2.1-0.3,2.6-0.9c0.6-0.6,0.9-1.3,0.9-2.3c0-1-0.3-1.7-0.9-2.3
			c-0.6-0.5-1.5-0.8-2.7-0.8h-3V292.7z"/>
		<path class="st8" d="M368.1,286.4v5.6h5.7v1.2h-5.7v5.7h6.3v1.2h-7.8v-15h7.8v1.2H368.1z"/>
		<path class="st8" d="M395.5,300.2l-3.7-6.3h-2.8v6.3h-1.5v-15h4.5c1.7,0,2.9,0.4,3.8,1.2s1.3,1.8,1.3,3.1c0,1.1-0.3,2-0.9,2.8
			c-0.6,0.8-1.5,1.3-2.8,1.5l3.9,6.4H395.5z M389.1,292.7h3c1.2,0,2.1-0.3,2.6-0.9c0.6-0.6,0.9-1.3,0.9-2.3c0-1-0.3-1.7-0.9-2.3
			c-0.6-0.5-1.5-0.8-2.7-0.8h-3V292.7z"/>
		<path class="st8" d="M403.8,286.4v5.6h5.7v1.2h-5.7v5.7h6.3v1.2h-7.8v-15h7.8v1.2H403.8z"/>
		<path class="st8" d="M423.9,286.1c1.2,0.6,2.1,1.5,2.7,2.6c0.6,1.1,0.9,2.5,0.9,4c0,1.5-0.3,2.9-0.9,4c-0.6,1.1-1.5,2-2.7,2.6
			c-1.2,0.6-2.6,0.9-4.3,0.9h-4.4v-15h4.4C421.3,285.2,422.7,285.5,423.9,286.1z M424.4,297.3c1.1-1.1,1.6-2.6,1.6-4.6
			c0-2-0.5-3.5-1.6-4.6c-1.1-1.1-2.7-1.7-4.8-1.7h-2.9v12.5h2.9C421.7,298.9,423.3,298.4,424.4,297.3z"/>
		<path class="st8" d="M434,286.4v5.6h5.7v1.2H434v5.7h6.3v1.2h-7.8v-15h7.8v1.2H434z"/>
		<path class="st8" d="M453.5,285.2v1.2h-6.6v5.6h5.6v1.2h-5.6v6.9h-1.5v-15H453.5z"/>
		<path class="st8" d="M459.6,285.2v15h-1.5v-15H459.6z"/>
		<path class="st8" d="M476.4,300.2h-1.5l-8.3-12.6v12.6h-1.5v-15h1.5l8.3,12.6v-12.6h1.5V300.2z"/>
		<path class="st8" d="M483.4,286.4v5.6h5.7v1.2h-5.7v5.7h6.3v1.2h-7.8v-15h7.8v1.2H483.4z"/>
		<path class="st8" d="M503.6,286.1c1.2,0.6,2.1,1.5,2.7,2.6c0.6,1.1,0.9,2.5,0.9,4c0,1.5-0.3,2.9-0.9,4c-0.6,1.1-1.5,2-2.7,2.6
			c-1.2,0.6-2.6,0.9-4.3,0.9h-4.4v-15h4.4C501,285.2,502.4,285.5,503.6,286.1z M504.1,297.3c1.1-1.1,1.6-2.6,1.6-4.6
			c0-2-0.5-3.5-1.6-4.6c-1.1-1.1-2.7-1.7-4.8-1.7h-2.9v12.5h2.9C501.4,298.9,503,298.4,504.1,297.3z"/>
	</g>
	<g>
		
			<image style="overflow:visible;opacity:0.4;" width="204" height="230" xlink:href="91B9D3FC.png"  transform="matrix(0.24 0 0 0.24 51.0128 122.7011)">
		</image>
		<g>
			<g>
				<path class="st8" d="M55.9,147.7c-0.7,0.5-0.9,1.5-0.5,2.2c0.3,0.5,0.8,0.7,1.3,0.8c0.5,0.1,0.9,0.1,1.4,0.3
					c0.4,0.2,0.7,0.4,1,0.7c0.5,0.4,1.1,0.7,1.7,0.5c0.3-0.1,0.6-0.3,0.8-0.6c0.2-0.3,0.4-0.6,0.4-1c0-0.4-0.1-0.8-0.3-1.2
					c-0.2-0.5-0.3-1-0.4-1.5c-0.1-0.5-0.3-1-0.7-1.4c-0.5-0.5-1.1-0.6-1.7-0.4c-0.3,0.1-0.5,0.2-0.7,0.3c-0.5,0.4-1.1,0.7-1.7,0.9
					C56.3,147.5,56.1,147.6,55.9,147.7z"/>
				<path class="st8" d="M60.4,142.9c-0.5-0.6-1.3-0.5-1.8,0c-0.5,0.6-0.7,1.2-0.5,2c0.2,0.6,0.7,1,1.4,0.9c0.4-0.1,0.7-0.4,0.9-0.7
					c0.3-0.6,0.4-1.2,0.2-1.8c0,0,0-0.1-0.1-0.1C60.5,143,60.4,143,60.4,142.9z"/>
				<path class="st8" d="M63.5,144.4c-0.2-0.7-1-0.9-1.7-0.6c-0.7,0.4-1.1,0.9-1.1,1.7c-0.1,0.7,0.3,1.2,1,1.3
					c0.4,0.1,0.8-0.1,1.1-0.4c0.5-0.4,0.8-0.9,0.8-1.6c0-0.1,0-0.1,0-0.2C63.6,144.5,63.6,144.5,63.5,144.4z"/>
				<path class="st8" d="M55.8,146.3c0.6,0.8,1.5,0.6,1.9-0.2c0.4-0.8,0.1-1.8-0.6-2.2c-0.3-0.2-0.7-0.2-1,0
					c-0.7,0.4-0.8,1.3-0.6,1.9C55.6,146,55.7,146.2,55.8,146.3z"/>
				<path class="st8" d="M62.5,147c-0.4,0.3-0.7,0.7-0.7,1.2c-0.1,0.7,0.4,1.2,1,1.2c0.8,0,1.7-0.7,1.8-1.5c0.1-0.9-0.6-1.4-1.4-1.2
					C62.9,146.8,62.7,146.9,62.5,147z"/>
			</g>
			<g>
				<path class="st8" d="M88,148.4c-0.5,2.2-2.8,4-5.2,3.6c-1.6-0.3-2.7-1.2-3.5-2.6c-0.7-1.1-1.3-2.3-2.2-3.2
					c-0.8-0.8-1.9-1.4-2.9-1.9c-1.6-0.9-2.9-2.1-3.1-4c-0.1-1,0.1-2,0.7-2.7c0.6-0.8,1.1-1.6,2.1-2c1.1-0.4,2.3-0.6,3.5-0.6
					c1.5,0,2.9-0.2,4.3-0.5c1.4-0.4,2.9-0.4,4.3,0.3c1.7,0.8,2.6,2.2,2.9,4.1c0.1,0.7,0,1.5-0.1,2.2c-0.4,1.8-0.5,3.6-0.5,5.5
					C88.2,147.2,88.2,147.9,88,148.4z"/>
				<path class="st8" d="M95.7,131.5c2.1,0.6,2.8,2.8,1.8,4.8c-0.9,1.9-2.4,3.1-4.6,3.4c-1.9,0.3-3.5-0.8-3.8-2.6
					c-0.2-1.2,0.2-2.3,0.9-3.3c1.1-1.5,2.6-2.4,4.5-2.5c0.1,0,0.3,0,0.4,0C95.2,131.4,95.5,131.5,95.7,131.5z"/>
				<path class="st8" d="M88.5,124.9c2.1-0.2,3.6,1.7,3.4,3.9c-0.2,2.1-1.2,3.8-3.1,4.8c-1.6,0.9-3.6,0.4-4.5-1.1
					c-0.6-1.1-0.6-2.2-0.3-3.4c0.5-1.8,1.6-3.1,3.4-3.9c0.1-0.1,0.3-0.1,0.4-0.2C88,125,88.2,125,88.5,124.9z"/>
				<path class="st8" d="M91.8,147.2c-2.6-0.7-3.3-3.2-1.5-5.3c1.6-1.8,4.5-2.3,6.4-0.9c0.8,0.6,1.3,1.7,1.1,2.7
					c-0.3,2.2-2.5,3.5-4.3,3.7C92.9,147.4,92.3,147.4,91.8,147.2z"/>
				<path class="st8" d="M82.6,130.5c-0.4,1.4-1.1,2.5-2.3,3.1c-1.6,0.9-3.4,0.2-4.2-1.4c-0.9-2,0-5.1,2-6.2c2.2-1.3,4.4,0,4.7,2.4
					C82.9,129.1,82.8,129.9,82.6,130.5z"/>
			</g>
			<g>
				<path class="st8" d="M71.4,160.8c0.2-1.2,1.3-2.3,2.7-2.3c0.9,0.1,1.5,0.5,2,1.2c0.4,0.6,0.8,1.2,1.4,1.7
					c0.5,0.4,1.1,0.6,1.7,0.9c0.9,0.4,1.7,1,1.9,2c0.1,0.5,0,1.1-0.2,1.5c-0.3,0.4-0.5,0.9-1.1,1.2c-0.6,0.3-1.2,0.4-1.9,0.5
					c-0.8,0.1-1.6,0.2-2.3,0.5c-0.8,0.3-1.6,0.4-2.3,0.1c-1-0.4-1.6-1.1-1.8-2.1c-0.1-0.4-0.1-0.8,0-1.2c0.1-1,0.1-2,0-3
					C71.3,161.5,71.3,161.1,71.4,160.8z"/>
				<path class="st8" d="M68,170.4c-1.2-0.2-1.7-1.4-1.3-2.5c0.4-1.1,1.2-1.8,2.3-2.1c1-0.3,2,0.3,2.2,1.2c0.2,0.6,0,1.3-0.3,1.8
					c-0.5,0.9-1.3,1.5-2.3,1.6c-0.1,0-0.2,0-0.2,0C68.3,170.5,68.1,170.4,68,170.4z"/>
				<path class="st8" d="M72.3,173.7c-1.2,0.2-2-0.7-2-1.9c0-1.2,0.5-2.1,1.5-2.8c0.9-0.6,1.9-0.4,2.5,0.4c0.4,0.5,0.4,1.2,0.3,1.8
					c-0.2,1-0.7,1.8-1.6,2.3c-0.1,0-0.1,0.1-0.2,0.1C72.6,173.6,72.4,173.6,72.3,173.7z"/>
				<path class="st8" d="M69.3,161.7c1.5,0.3,2,1.6,1.1,2.8c-0.8,1.1-2.3,1.5-3.4,0.8c-0.5-0.3-0.8-0.9-0.7-1.4
					c0.1-1.2,1.2-2,2.1-2.2C68.7,161.6,69,161.6,69.3,161.7z"/>
				<path class="st8" d="M75.2,170.3c0.1-0.8,0.5-1.4,1.1-1.8c0.9-0.6,1.9-0.3,2.4,0.6c0.6,1.1,0.2,2.8-0.8,3.5
					c-1.1,0.8-2.4,0.2-2.7-1.1C75.1,171.1,75.1,170.7,75.2,170.3z"/>
			</g>
		</g>
	</g>
	<g>
		<g>
			<defs>
				<path id="SVGID_8_" d="M515.6,183.3c0,0-3.5-0.4-3.5-0.4c-0.1,0-1.2-5.2-7.2-10.2c-7.1-6-15.9-16.5-18.8-26.7
					s-6.9-15.9-5.5-23.9S498,82.5,498,82.5s16.3,1.8,20.7,6.9c4.4,5.1,7.4,7.6,7.4,7.6s17.2-6.9,28.3,1.8c8.5-3.9,24.4-9.2,31.3-6.2
					c1.8,6,3.2,12.6,1.6,17.9s-5.1,17.5-6,19.5s1.4,5.3,1.4,8.7s2.3,5.1,0,7.6s-8.5,8-11.7,11s-4.6,7.4-4.6,7.4l4.7,10l-27.1,6.9
					L515.6,183.3z"/>
			</defs>
			<clipPath id="SVGID_10_">
				<use xlink:href="#SVGID_8_"  style="overflow:visible;"/>
			</clipPath>
			<g style="clip-path:url(#SVGID_10_);">
				<path class="st0" d="M497.8,121.6c0.1,1.4,0.1,2.8-0.2,4.2c-0.2,1-0.3,1.9-0.2,3l-0.2,2.4c-0.1,1.9-0.2,3.8-1.8,5.1
					c-0.5,0.4-0.9,0.8-1.2,1.4c-0.4,0.7-0.3,0.9,0.4,1.1c1.3,0.4,2.6,0.8,4,1.3c-0.6,0.6-1.1,1-1.6,1.6c-0.3,0.4-0.7,0.8-0.3,1.3
					l2,1c0.6,1.1,1.6,1.7,2.7,2.2c0.4,0.2,0.9,0.3,1.3,0.8c-1,0.1-1.9,0.2-3.1,0.3c1.4,1,2,2.4,3.2,3.3c4,2.8,7.8,5.8,12.4,7.5
					c0.6,0.2,1.1,0.7,1.1,1.4c-0.3,2.6,0.3,5.4-1.6,7.7c-0.1,0.2-0.2,0.5-0.3,0.7c-0.7,2.7-2.5,5-3.4,7.6c-0.3,0.9-0.5,1.6-0.2,2.4
					c0.4,1,0.7,2.1,0.5,3.2c0,0.2-0.1,0.6,0.2,0.7c1.1,0.1,0.6,0.7,0.5,1.3c-0.1,0.5-0.2,1,0.1,1.5c0,0.1,0.1,0.2,0.1,0.2
					c0.4-0.2,0.2-0.6,0.6-0.8c0.1,1.4,0.1,2.7,0.3,3.9c0.1,1.3-0.2,2.5-0.1,3.7c0,0.2,0.1,0.4,0.2,0.6c0.5,0.8,0.7,1.6,0.9,2.5
					c0.9,3.4,1.9,6.8,3.8,9.9c1.3,2.1,2.4,4.2,3.1,6.6c0.3,0.9,0.8,1.8,1.6,2.5c0.2,0.1,0.3,0.3,0.4,0.5c0.8,2.6,1.6,5.3,1,8.1
					c-0.2,0.8,0,1.6,0.1,2.3c0.1,0.4,0.2,0.4,0.6,0.5c1.8,0.4,3.6,0.1,5.4,0.1c1.7,0,3.4,0.3,4.8-1.2c0.3-0.4,0.7-0.1,1,0
					c0.7,0.2,1.3,0.4,2,0c1.9-0.9,3.8-1.8,5.8-2.6c1-0.4,1.9-0.9,2.3-2.2c0.2-0.7,1.3-0.9,1.5-0.5c0.5,1.2,1.7,1.3,2.6,1.9
					c0.7,0.4,1.3,0.7,2.1,0.7c0.8,0,1.6,0,2.4-0.2c4.4-0.7,9-1,13-3.3c0.1-0.1,0.2-0.1,0.3-0.1c2.5-0.4,4.8-1.6,7.3-2.2
					c1.4-0.3,2.8-0.5,4-1.3c1-0.6,2-1,3.1-1.4c2.7-1,5.3-2,7.5-4.1c1.8-1.6,3.5-3.5,5.9-4.2c0.2-0.1,0.3-0.2,0.5-0.4
					c3.6-3.2,6.4-7,7.8-11.7c0.3-1,0.6-1.9,1.1-2.8c1.9-4.3,1.9-8.7,1.4-13.3c-0.1-1.1-0.7-2.1-1.8-2.7c-0.7-0.4-1.3-0.4-1.8,0.3
					c-1.1,1.6-2,3.3-2.2,5.2c-0.3,3.4-1.4,6.7-2.9,9.7c-2.4,4.7-5.2,9-9.8,11.9c-1.9,1.2-4,2.2-6,3.1c-1.7,0.8-2.8,0.1-3-1.7
					c-0.1-0.5-0.1-0.9-0.2-1.4c-0.3-2.3-0.4-4.8,0.5-6.8c0.7-1.7-0.2-2.7-0.6-4c-0.2-0.8-0.6-1.6-1-2.3c-0.4-0.8-0.6-1.9-0.3-2.7
					c0.2-0.8,0-1.1-0.4-1.6c-1.2-1.5-3-2.6-3.3-4.8c0-0.1-0.1-0.2-0.2-0.3c-1.4-0.9-1.6-2.5-2.4-3.8c-2.6-4.6-5.3-9.1-9.5-12.4
					c-0.3-0.2-0.7-0.4-0.5-0.8c0.2-0.6-0.2-0.9-0.6-1.2c-0.5-0.4-1-0.9-1.5-1.3c-0.2-0.2-0.6-0.3-0.5-0.6c0.1-0.3,0.5-0.3,0.7-0.3
					c4.9-0.5,9-3,13.3-5.2c1.2-0.6,2.2-1.5,2.9-2.7c0.2-0.3,0.6-0.7,0.3-1c-0.3-0.4-0.8-0.2-1.2-0.1c-0.8,0.3-1.6,0.1-2.4-0.5
					c0.9-0.4,2-0.4,1.9-1.6c1.2-0.3,1.8-1.6,2.9-2c0.7-0.3,1.5-0.6,2.2-0.9c0.4-0.2,1.1-0.2,1-0.8c-0.1-0.6-0.8-0.7-1.3-0.8
					c-0.3,0-0.6,0.1-0.8,0c-0.7-0.1-1.4-0.1-2.1-0.8c1.7-0.4,3.3-1,4.7-1.7c1-0.5,1-0.9,0-1.4c-0.6-0.3-1.3-0.6-1.8-1.1
					c-0.4-0.4-1.2-0.9,0-1.3c0.3-0.1,0.3-0.4,0.3-0.6c0.3-1.9,0.2-3.7-0.4-5.5c-0.5-1.6-0.2-2.9,0.6-4.4c1.5-2.6,3-5.3,3.6-8.2
					c1.1-4.9,2.7-9.7,3-14.9c0.1-2.5,0.3-4.9-0.3-7.4c-0.3-1.5-0.5-1.6-2-1.6c-2.9,0-5.8,0.6-8.7,0.6c-6.7,0-12.7,2.2-18.4,5.6
					c-0.9,0.6-1.7,0.6-2.7,0.1c-3.5-1.8-7.3-3-11.2-3.8c-1.8-0.3-3.5-0.3-5.3-0.2c-4.3,0.3-8.6,0.7-12.6,2.6
					c-1.5,0.8-1.7,0.7-2.9-0.4c-3.8-3.9-8.1-6.9-13-9.2c-2.5-1.2-5-2.1-7.6-3c-1.5-0.6-2.3-0.2-2.7,1c-2.2,6.3-3.1,12.9-2.7,19.6
					c0.2,3.9,0.6,7.8,1.4,11.6"/>
				<path class="st0" d="M496.7,143c-0.4-0.5-0.1-0.9,0.3-1.3c0.5-0.5,1-1,1.6-1.6c-1.4-0.5-2.7-0.9-4-1.3c-0.7-0.2-0.8-0.5-0.4-1.1
					c0.3-0.5,0.7-1,1.2-1.4c1.6-1.3,1.7-3.3,1.8-5.1l0.2-2.4c-0.2-1,0-2,0.2-3c0.3-1.4,0.3-2.8,0.2-4.2l-0.4-3.3
					c-0.9-3.8-1.2-7.7-1.4-11.6c-0.4-6.7,0.5-13.2,2.7-19.6c0.4-1.2,1.2-1.6,2.7-1c2.6,0.9,5.1,1.9,7.6,3c4.9,2.3,9.2,5.3,13,9.2
					c1.2,1.2,1.4,1.2,2.9,0.4c4-2,8.3-2.3,12.6-2.6c1.8-0.1,3.5-0.1,5.3,0.2c3.9,0.8,7.6,2,11.2,3.8c1,0.5,1.8,0.5,2.7-0.1
					c5.6-3.4,11.6-5.6,18.4-5.6c2.9,0,5.8-0.6,8.7-0.6c1.5,0,1.7,0.1,2,1.6c0.6,2.4,0.4,4.9,0.3,7.4c-0.3,5.1-1.9,9.9-3,14.9
					c-0.7,3-2.1,5.6-3.6,8.2c-0.8,1.4-1.1,2.8-0.6,4.4c0.5,1.8,0.7,3.6,0.4,5.5c0,0.3-0.1,0.5-0.3,0.6c-1.2,0.4-0.4,0.9,0,1.3
					c0.5,0.5,1.2,0.7,1.8,1.1c1,0.5,1,0.9,0,1.4c-1.5,0.7-3,1.3-4.7,1.7c0.7,0.7,1.4,0.7,2.1,0.8c0.3,0,0.6-0.1,0.8,0
					c0.5,0.1,1.2,0.2,1.3,0.8c0.1,0.6-0.6,0.6-1,0.8c-0.7,0.3-1.4,0.6-2.2,0.9c-1.2,0.4-1.7,1.7-2.9,2c0.1,1.3-1,1.2-1.9,1.6
					c0.8,0.6,1.6,0.7,2.4,0.5c0.4-0.1,0.9-0.3,1.2,0.1c0.3,0.3-0.1,0.7-0.3,1c-0.7,1.2-1.7,2.1-2.9,2.7c-4.3,2.2-8.4,4.7-13.3,5.2
					c-0.3,0-0.6,0-0.7,0.3c-0.1,0.3,0.3,0.5,0.5,0.6c0.5,0.4,1,0.9,1.5,1.3c0.4,0.3,0.8,0.6,0.6,1.2c-0.1,0.4,0.2,0.6,0.5,0.8
					c4.2,3.3,7,7.8,9.5,12.4c0.7,1.3,1,2.9,2.4,3.8c0.1,0.1,0.2,0.2,0.2,0.3c0.2,2.2,2,3.3,3.3,4.8c0.4,0.5,0.7,0.8,0.4,1.6
					c-0.3,0.8-0.1,1.9,0.3,2.7c0.4,0.8,0.8,1.5,1,2.3c0.4,1.3,1.3,2.3,0.6,4c-0.8,2.1-0.7,4.5-0.5,6.8c0.1,0.5,0.1,0.9,0.2,1.4
					c0.2,1.8,1.4,2.4,3,1.7c2.1-1,4.1-1.9,6-3.1c4.6-2.9,7.4-7.3,9.8-11.9c1.5-3,2.6-6.3,2.9-9.7c0.2-2,1.2-3.6,2.2-5.2
					c0.5-0.7,1.1-0.7,1.8-0.3c1,0.6,1.6,1.5,1.8,2.7c0.5,4.5,0.5,9-1.4,13.3c-0.4,0.9-0.8,1.8-1.1,2.8c-1.4,4.7-4.2,8.5-7.8,11.7
					c-0.2,0.1-0.3,0.3-0.5,0.4c-2.4,0.8-4.1,2.6-5.9,4.2c-2.2,2-4.8,3-7.5,4.1c-1.1,0.4-2.1,0.9-3.1,1.4c-1.2,0.7-2.7,0.9-4,1.3
					c-2.5,0.6-4.8,1.8-7.3,2.2c-0.1,0-0.2,0.1-0.3,0.1c-4,2.3-8.6,2.6-13,3.3c-0.8,0.1-1.6,0.1-2.4,0.2c-0.8,0-1.4-0.3-2.1-0.7
					c-0.9-0.6-2-0.7-2.6-1.9c-0.1-0.3-1.3-0.1-1.5,0.5c-0.3,1.2-1.3,1.8-2.3,2.2c-2,0.8-3.9,1.7-5.8,2.6c-0.7,0.3-1.3,0.1-2,0
					c-0.3-0.1-0.7-0.4-1,0c-1.3,1.5-3.1,1.2-4.8,1.2c-1.8,0-3.6,0.3-5.4-0.1c-0.4-0.1-0.5-0.2-0.6-0.5c-0.1-0.8-0.2-1.5-0.1-2.3
					c0.6-2.8-0.1-5.5-1-8.1c-0.1-0.2-0.2-0.4-0.4-0.5c-0.8-0.7-1.3-1.5-1.6-2.5c-0.7-2.4-1.9-4.5-3.1-6.6c-1.8-3.1-2.9-6.5-3.8-9.9
					c-0.2-0.9-0.4-1.7-0.9-2.5c-0.1-0.2-0.2-0.4-0.2-0.6c0-1.2,0.3-2.4,0.1-3.7c-0.1-1.2-0.1-2.5-0.3-3.9c-0.4,0.2-0.3,0.6-0.6,0.8
					c0,0-0.1-0.1-0.1-0.2c-0.2-0.5-0.2-1-0.1-1.5c0.1-0.5,0.5-1.2-0.5-1.3c-0.3,0-0.2-0.4-0.2-0.7c0.2-1.1-0.1-2.2-0.5-3.2
					c-0.3-0.8-0.1-1.6,0.2-2.4c0.9-2.7,2.7-4.9,3.4-7.6c0.1-0.2,0.1-0.5,0.3-0.7c1.8-2.3,1.2-5.1,1.6-7.7c0.1-0.7-0.4-1.2-1.1-1.4
					c-4.7-1.7-8.4-4.7-12.4-7.5c-1.2-0.8-1.8-2.3-3.2-3.3c1.2-0.1,2.1-0.2,3.1-0.3c-0.4-0.5-0.9-0.6-1.3-0.8
					c-1.1-0.5-2.1-1.1-2.7-2.2L496.7,143z M566.7,173.1c-0.1,0.4,0.2,0.9-0.2,1c-0.5,0.2-0.6-0.6-1.1-0.8c0.1,0.8,0.7,1.6,0.1,2.5
					c-1-0.7-0.9-1.9-1.6-2.9c-0.3,1.1,0.7,2.1-0.1,3.1c-0.2-0.4-0.4-0.8-0.7-1.3c-0.3,0.6-0.6,0.9-1.2,0.5c-0.1-0.1-0.3-0.1-0.4,0.1
					c-0.4,1.2-1,0.2-1.6,0.1c-0.1,0.1-0.2,0.2-0.2,0.4c-0.2,0.9-0.6,0.8-1.2,0.3c-0.4-0.4-0.8-0.9-1.3-1.4c-0.2,0.7,0.3,1.6-0.4,1.9
					c-0.8,0.3-1.1-0.7-1.8-1c0,0.3,0,0.5,0,0.8c0,0.5,0.1,1.1-0.4,1.3c-0.5,0.2-1.1-0.1-1.4-0.6c-0.5-0.7-0.9-0.4-1.4-0.1
					c-1,0.6-1.7,0.2-1.9-0.9c0.5-0.2,1,0.7,1.4,0c0.6-1.3,1.3-0.8,2-0.2c0.2,0.2,0.5,0.4,0.8,0.7c-0.1-0.8-0.1-1.3-0.1-1.9
					c0-0.4,0-0.8,0.3-1c0.4-0.2,0.7,0.2,1,0.4c0.3,0.2,0.4,0.7,0.9,0.8c0-0.5,0-0.8,0-1.2c0-0.4,0.1-0.8,0.5-1
					c0.4-0.1,0.6,0.2,0.9,0.5c0.3,0.4,0.6,0.8,1,1.4c-0.1-1.3,0.3-1.9,1.5-1.2c0.1-0.4,0.2-0.8,0.3-1.1c0.6,0.1,0.8,0.6,1.3,0.7
					c0.1-0.4-0.1-0.8-0.1-1.2c0-0.6-0.6-1.3,0-1.8c0.5-0.4,1.1,0.2,1.6,0.4c0.4,0.2,0.6,0.2,0.7-0.3c0.3-0.8-0.5-1.9,0.7-2.4
					c0,0,0-0.1,0-0.2c-0.7-1.2-1.5-2.3-2.9-3c0.1,0.6,0.1,0.9,0.2,1.3c-1.2-0.3-1.6-1.5-2.6-2.3c0.3,0.5,0.4,0.8,0.6,1.2
					c0.2,0.4,0.5,0.8,0.6,1.3c0.2,1.1-0.8,0.3-1.1,0.7c0,0-0.1,0-0.1,0.1c-0.3,0.6-0.5,0.2-0.7-0.1c-0.1-0.2-0.2-0.5-0.5-0.5
					c-0.1,0.3-0.2,0.6-0.3,1c-0.5,0-0.9-0.7-0.9-0.6c-0.2,0.8-1,0.6-1.3,0.9c-0.9,0.7-1.9,0.5-2.8,0.7c-0.5,0.1-1-0.5-1.1-1.1
					c0.6-0.1,1,0.5,1.5,0.4c-0.1-0.9-0.2-1.8,0.9-2.1c0.1,0,0.2-0.1,0.2-0.2c0.4-1.1,0.9-2,2.3-1.4c0,0,0.1,0,0.2-0.1
					c0.9-0.4,1.4-2,1-3.2c-0.4-1.2-1.3-1.7-2.5-1.4c-0.5,0.1-1,0.3-1.5,0.4c-1,0.2-1.2-0.1-0.9-1c-1.4-0.2-3,0.1-4.2-1.1
					c0.2-0.1,0.3-0.1,0.3-0.1c6.7,0.8,13.1-0.3,18.7-4.2c0.3-0.2,0.8-0.3,0.7-0.8c-0.1-0.6,0.3-0.7,0.7-0.9c0.5-0.2,1-0.5,1.7-0.8
					c-1.9-0.6-3.7-1.1-5.4-1.7c0-0.1,0-0.2,0-0.3c2.4,0.8,4.1-0.5,5.7-1.8c0.3-0.2,0.6-0.4,0.9-0.7c0.2-0.1,0.4-0.3,0.4-0.4
					c0-0.9,0.7-0.9,1.3-1.1c0.4-0.1,0.7-0.2,1.2-0.3c-2.1-1.2-3.5-2.8-5.1-4.3c-0.3-0.2-0.5-0.6-0.3-0.9c0.2-0.4,0.6,0,0.9,0
					c0.2,0,0.4,0.4,0.6,0.1c0.2-0.3-0.2-0.4-0.3-0.6c-4.9-4.3-10-8.5-15.8-11.7c-1.4-0.8-2.9-1.5-4.4-2.2c-1-0.5-1.4-0.2-1.7,0.8
					c-0.1,0.3-0.3,0.4-0.5,0.4c-1.3-0.2-1.9,0.6-2.4,1.5c-2,3.3-3.1,6.9-3.6,10.7c-0.3,2.3-1.2,4.3-2.8,6.1
					c-1.9,2.3-5.1,2.9-7.5,1.4c-1.9-1.2-2.5-3.1-2.9-5.1c-0.8-3.8-1.1-7.7-1.6-11.6c-0.2-1.7-0.8-3.2-2.1-4.4
					c-0.8-0.7-1.5-0.9-2.6-0.4c-6.3,2.9-11.8,7-17.1,11.4c-1,0.8-2,1.9-2.4,3c-0.4,1.1-1.2,1.4-2,1.9c-0.3,0.2-0.5,0.3-0.5,0.6
					c0,0.7-0.4,0.9-1,1c-0.3,0.1-0.7,0.1-0.9,0.5c0.1,0.1,0.2,0.2,0.3,0.2c1,0.1,1.7,0.4,2.2,1.4c0.3,0.6,1,0.7,1.6,0.6
					c0.3-0.1,0.7-0.2,1-0.2c0.2,0,0.5,0,0.6,0.2c0.1,0.2-0.1,0.4-0.2,0.5c-0.3,0.2-0.7,0.4-1,0.5c1.1,1,1.1,1,0.1,2.1
					c-0.2,0.2-0.5,0.3-0.4,0.7c1.3,0,2.2,0.8,3.1,1.6c1.3,1.2,2.6,2.4,4.2,3.2c3.1,1.5,5.7,3.8,9,5c0.1,0,0.3,0.1,0.4,0.2
					c0.5,0.7,1.2,0.9,2,0.9c0.2,0,0.6,0,0.6,0.3c0,0.3-0.3,0.3-0.5,0.4c-1.2,0.3-2.3,0.1-3.5-0.2c-0.5-0.1-0.8-0.2-0.9,0.5
					c-0.2,2.1-0.4,4.2-0.6,6.3c0,0.2,0,0.5,0,0.5c0.8,0,0.9,1.3,1.9,1c0.2-0.1,0.5,0.1,0.7,0.3c0.5,0.6,1,0.6,1.6,0.1
					c0.1-0.1,0.4-0.3,0.5,0c0.2,0.7,0.6,0.6,1.1,0.4c0.2-0.1,0.4,0.1,0.5,0.3c0.3,0.8,0.8,0.5,1.3,0.2c1.1-0.8,2.4-1,3.8-0.8
					c-0.4,0.5-0.8,1-1.2,0.9c-1.1,0-2,0.5-2.9,1c-0.5,0.3-1,0.5-1.5,0c-0.4-0.4-0.6-0.3-0.9,0.1c-0.2,0.3-0.4,0.5-0.6,0.7
					c-0.4,0.3-0.9,1.4-1.4,0.1c-0.1-0.1-0.2-0.1-0.4-0.1c-1.1,0.1-2.2,0.1-3.3,0.7c-0.6,0.3-0.9-0.1-1.1-0.6
					c-0.1-0.3-0.1-0.6-0.1-0.9c-0.1,1.1-1.7,2-0.4,3.2c0,0,0,0.2,0,0.2c-0.6,0.8-0.2,1.8-0.4,2.7c-0.2,0.7,0,1.3,0.6,1.7
					c0.7,0.5,0.9,1.1,0.9,1.9c0,0.4,0,0.7,0.1,1.1c0.4-0.6,0.6-1.2,0.8-1.7c0.2-0.5,0.5-0.8,0.9-0.1c0.2,0.3,0.3,0.5,0.6,0.2
					c0.7-0.5,0.9,0,1,0.5c0.1,0.5,0.2,0.9,0.2,1.6c0.6-0.8,0.9-1.7,1.9-2.1c0.1,0.4,0.2,0.8,0.2,1.3c0.5-0.5,0.9-0.9,1.4-1.3
					c0.4,0.4,0.4,1.6,1.4,0.6c0,0,0.3,0.2,0.4,0.3c0.2,0.2,0.3,0.7,0.7,0.7c0.3-0.7,0.5-1.3,1.2-1.7c0.3-0.2,0.6-0.3,0.7,0.1
					c0.4,0.9,0.8,0.6,1.2,0c0.5-0.8,1.2-1.3,2.2-0.7c0.2,0.2,0.7,0.2,0.6,0.6c-0.2,0.4-0.6,0.6-1,0.4c-0.8-0.4-1.1,0.1-1.5,0.6
					c-0.2,0.3-0.4,0.5-0.6,0.7c-0.4,0.5-0.8,0.5-1.2-0.2c-0.1-0.2-0.1-0.5-0.4-0.6c-0.7,0.5-0.8,1.8-1.7,1.8c-1,0.1-1.5,0.8-2.2,1.2
					c-0.2-0.5-0.4-1-0.6-1.5c-1.6,2.2-1.6,2.2-2.6,1.4c-0.1,0.2-0.2,0.3-0.3,0.5c-0.2,0.3-0.5,0.8-0.9,0.6c-0.4-0.1-0.3-0.7-0.3-1.1
					c0.1-0.7,0.1-1.4,0.2-2.3c-0.3,0.3-0.4,0.5-0.5,0.6c-0.6,1.1-0.9,2.3-2.1,3c-0.1,0-0.1,0.2-0.1,0.3c-0.1,2.1-0.2,4.2-0.3,5.9
					c1.5,0.7,2.8,1.1,2.8,2.9c0.8-0.5,0.9-1.8,2.1-1.2c0,0,0.2-0.2,0.3-0.3c0.5-0.6,1-0.6,1.4,0c0.5,0.6,0.7,0.2,1-0.2
					c0.6-0.9,1.3-1.7,2-2.5c-0.1,1.7-1,2.9-2.3,3.8c-0.3,0.2-0.7,0.2-1-0.1c-0.6-0.5-0.8-0.1-1,0.4c-0.2,0.3-0.3,0.7-0.4,1
					c-0.5,0.9-2.2,1.5-3.1,0.9c-1.1,1.8-0.9,2.9,1.4,6.7c0.3-0.1,0.2-0.7,0.6-0.8c0.5,0.2,0.6,0.7,0.9,1c0.1-0.1,0.2-0.2,0.2-0.3
					c0.4-0.6,0.6-1.3,1.4-0.3c0.6,0.6,2.2,0.1,2.6-0.7c0.3-0.5,0.4-1.1,1.1-1.4c0,1.6-0.5,2.8-1.7,2.9c-1,0.1-1.4,1.6-2.6,0.9
					c0,0-0.1,0.1-0.1,0.1c-0.2,0.8-0.9,1.6-0.6,2.3c0.6,1.4,1.5,2.6,2.4,4c0.3-0.9-0.2-1.5,0-2.1c0.8,0.4,1.5,0.9,1.9,1.7
					c0.6-1.9,1.2-2.1,2.9-1c-0.2,0.4-0.6,0.7-1,0.5c-0.8-0.3-0.9,0.2-0.9,0.8c-0.1,0.7-0.3,1.3-1.1,1.3c-0.5,0-0.5,0.4-0.5,0.7
					c0.1,1.2,0,2.4,0.4,3.6c0.6,1.8,0.5,3.7,0.3,5.6c-0.3,2.5-0.2,2.6,2.3,2.6c0.1,0,0.1,0,0.3-0.1c-0.1-0.7-0.5-1.4-0.2-2.2
					c0.7,0.3,0.9,0.9,1.2,1.5c0.2,0.5,0.5,1.1,1.1,1.2c1.1,0.1,2.2,0.2,3.3-0.1c0.7-0.2,1-0.5,0.7-1.3c-0.4-0.7-0.5-1.5-0.4-2.3
					c0.4,0.5,0.8,1,1.1,1.4c0.8,1,1.8,1.5,3.1,1.2c1.3-0.3,2.1-1.1,2.4-2.4c0.1-0.2,0.1-0.5,0.1-0.7c0.1-0.3,0.1-0.7,0.5-0.7
					c0.4,0,0.4,0.4,0.5,0.7c0,0.1,0.1,0.3,0.1,0.4c0.1,0.6,0.3,0.7,0.8,0.4c1.6-0.8,2.1-2.1,1.2-3.7c-0.9-1.4-2-2.7-3.3-3.7
					c-1.4-1.1-2.7-2.3-3.4-4c-1.7-4.2-2.4-8.6-3.7-12.9c-0.1-0.4-0.2-0.9-0.2-1.4c-0.1-1.6,0-3.2,0.6-4.8c0.3,1.2,0.7,2.4,0.8,3.7
					c0.1,2.2,0.5,4.3,1.1,6.4c0.8,2.9,2.3,5.4,3.5,8.1c0.2,0.6,0.6,1.3,1.1,1.4c1.2,0.1,1,1.1,1.5,1.6c0.1,0.1,0.2,0.2,0.4,0.4
					c0-0.8,0-1.4,0-2.3c0.9,1.8,0.7,3.7,2.1,5.3c-0.2-1.7-0.4-3.1-0.5-4.5c0.1,0,0.1,0,0.2-0.1c0.4,1.5,0.8,3,1.3,4.6
					c0.1,0,0.1,0,0.2,0c0-1,0.1-1.9,0.1-2.9c0.1,0,0.2,0,0.3,0c0.1,0.8,0.3,1.5,0.4,2.3c0.1,0,0.1,0,0.2,0c0.1-0.7,0.2-1.4,0.3-2
					c0.1,0,0.1,0,0.2,0c0.1,1.4,0.2,2.8,0.3,4.2c0.1,0,0.2,0,0.3,0c0.5-1.9,1-3.9,1.5-5.8c0.1,0,0.2,0,0.2,0.1
					c-0.1,1.4-0.3,2.8-0.4,4.1c0.1,0,0.2,0,0.2,0c0.5-1.8,1-3.6,1.6-5.5c0.3,0.8-0.2,1.5,0.1,2.2c0.2,0,0.3-0.2,0.4-0.3
					c1.2-2.9,2.2-5.8,2.3-9c0.1-3.8,0.1-7.6,0.3-11.4c0-0.2-0.2-0.5,0.2-0.6c0.9,1.8,1.3,3.7,1.3,5.7c0,2.4-0.4,4.9-0.2,7.3
					c0.1,2.3-0.5,4.3-1.6,6.3c-0.9,1.6-1.7,3.3-2.8,4.9c-0.6,0.8-0.8,1.7-0.9,2.7c-0.1,0.7,0.2,1.3,0.8,1.6c1.1,0.5,2.2,1,3.5,1.5
					c-0.1-1-0.4-1.8-0.2-2.7c0.6,0.2,1,0.7,1.4,1.2c1.1,1.2,2.5,1.6,3.8,1c0.5-0.2,0.8-0.4,0.3-0.9c-0.4-0.4-0.6-0.9-0.6-1.5
					c0.4-0.1,0.7,0.2,1,0.4c1.6,1.2,3.4,1.2,5.3,0.6c0.7-0.2,1.2-0.5,0.4-1.3c-0.2-0.2-0.4-0.4-0.2-0.8c0.3-0.1,0.6,0,0.8,0.1
					c1.3,0.9,2.5,0.4,3.8,0c0.5-0.1,0.9-0.5,0.7-1.1c-0.7-2.2-1.4-4.3-3.5-5.7c-0.6-0.4-1-0.6-1.7-0.3c-0.8,0.4-1.5,0-1.8-0.9
					c0.6,0,1.2,0.6,1.7,0.1c0.9-0.9,1.4-0.2,2.1,0.3c0.3,0.2,0.6,0.8,0.8,0.6c0.3-0.3,0.6-0.6,0.7-1.1c0.2-1.5,0.5-3.1,0.7-4.6
					c0.1-0.4,0.3-0.8,0-1.2c-0.4,0.3-0.2,1.1-0.8,1.1c-0.5,0-0.6-0.7-0.8-1.2c-0.1-0.2-0.2-0.3-0.3-0.5c-0.4,0.8-0.2,1.6-0.7,2.3
					c-0.7-0.6-0.9-1.5-1.2-2.3c-0.1-0.3-0.1-0.9-0.5-1c-0.6-0.1-0.3,0.7-0.7,0.8c-0.2-0.5-0.4-1.1,0.2-1.5c0.6-0.4,1.1-0.1,1.4,0.5
					c0.3,0.5,0.6,0.4,0.8,0c0.3-0.4,0.6-0.4,1.1-0.1c0.8,0.6,1.9,0.2,2.2-0.7c0.3-1,0.7-2.1,0.8-3.2c0.1-1-0.1-1.9-1-2.6
					c-0.1,0.3-0.1,0.6-0.1,0.8c-0.1,0.3-0.1,0.6-0.4,0.7c-0.3,0.1-0.6-0.2-0.7-0.5c-0.4-1.1-1.1-2-1.8-3c-0.1-0.1-0.3-0.3-0.1-0.4
					c0.2-0.2,0.3-0.1,0.5,0.1c0.5,0.4,1.1,0.9,1.7,1.4c0.2-0.5,0.3-0.8,0.4-1.2c0.1-0.2,0.2-0.5,0.5-0.4c0.6,0.3,0.7-0.1,0.8-0.6
					c0-0.3,0.2-0.6,0.4-0.5c1.1,0.2,0.7-0.6,0.6-1.1c-0.1-0.6-0.2-1.1-0.3-1.7c-0.3-1.3-0.6-1.5-1.8-0.8c-0.4,0.2-0.4-0.1-0.5-0.3
					c-0.3-0.5-0.3-1.1-0.6-1.8c-0.2,0.7-0.3,1.1-0.4,1.6c-0.1,0.2-0.2,0.5-0.5,0.5c-0.2,0-0.3-0.3-0.4-0.4c-0.2-0.6-0.5-1.2-0.7-2
					c-0.4,1-0.8,1.9-1.2,2.8c-0.3,0.7-1,0.8-1.6,0.5c-0.7-0.3-0.9-0.7-0.8-1.6c0.2,0.2,0.3,0.3,0.5,0.4c0.9,0.6,1.3,0.5,1.6-0.5
					c0.1-0.4,0.2-0.7,0.3-1.1c0.1-0.6,0.4-1.1,0.7-1.5c0.2-0.3,0.4-0.4,0.6-0.1c0.6,0.9,0.9,0.4,1.2-0.2c0.3-0.5,0.7-1,1.1-1.5
					c0.6-0.7,1-1.5,0.2-2.3c-0.1-0.1-0.2-0.5-0.2-0.6c0.6-0.9,0.1-1.7-0.3-2.5c2,2.3,3.3,5,3.5,7.9c0.2,3,0.4,6,0.8,9
					c0.1,1,0.3,2,0,3.1c-1,3.4-2.1,6.7-2.5,10.3c0,0,0,0.1,0,0.1c-1.1,2.9-0.2,5.4,1.7,7.7c0.1-1.4-0.3-2.8,0.2-4.4
					c0.2,1,0.3,1.7,0.5,2.5c0.4,2.2,0.4,2.2,2.9,1.5c-1.2-0.2-0.9-0.9-0.7-1.5c0.2-0.6,0.5-1.2,0.8-1.7c0.7-1.1,0.7-2.1,0-3.2
					c-0.2-0.3-0.5-0.7-0.2-1.2c0.2,0.1,0.3,0.2,0.5,0.3c0.6,0.6,1,0.5,1.1-0.4c0-0.2,0.1-0.5,0.2-0.7c0.1-0.5,0.1-1.1,0.9-1.2
					c0.4,0,0.9-1.9,0.6-2.1c-0.8-0.6-0.6-1.4-0.8-2.3c-0.3,0.3-0.2,0.8-0.5,1c-0.8-0.1-0.5-2-1.9-0.9c0-0.7,0-1.2,0.1-1.7
					c0-0.9,0.4-1.5,1.4-1.4c0.3,0,0.5,0,0.7-0.3c0.7-1.2,0.6-2.4-0.4-3.5c-0.1,0.4-0.1,0.7-0.2,1.1c-0.5-0.2-0.8-0.5-0.9-1
					c-0.3-1.2-0.7-2.5-1-3.7c-0.1-0.4-0.3-0.9,0.1-1.1c0.5-0.2,0.7,0.3,1,0.7c0.4,0.5,0.5,1.2,1.3,1.6c-0.2-1.5-0.3-2.8-1.1-3.9
					c-1.6-2.1-2.7-4.4-3.6-6.9c-1.1-2.7-2.5-5.2-4.1-7.7c-0.1,0.4-0.1,0.7-0.1,1.1C567.3,173.4,567,173.3,566.7,173.1z M524.5,100.3
					c-1.3,0.5-2.2,0.1-3.3-0.9c-3.7-3.3-8.1-5.8-12.3-8.3c-2.6-1.6-5.6-2.3-8.4-3.4c-0.6-0.2-0.8,0-1,0.6
					c-1.6,5.1-2.4,10.3-2.6,15.6c-0.2,5.1,1.2,9.9,2.5,14.7c0.2,0.8,0.8,0.9,1.5,0.7c0.7-0.2,1.1-0.4,0.8-1.2
					c-0.2-0.6-0.3-1.3-0.4-2c0.3,0.6,0.5,1.3,0.6,1.9c0.1,0.6,0.6,1,1.2,0.9c6.4-1,12.9-1.3,19.3-1.3c0.6,0,1.2,0,1.8-0.1
					c0.5-0.1,0.9-0.6,0.9-1.1c0-0.5-0.6-0.3-0.9-0.4c-0.2-0.1-0.4,0-0.6-0.1c-2.8-0.3-5.6-0.6-8.4-0.9c2.8-0.5,5.6-0.4,8.3,0.4
					c1.5,0.4,2.5,0.2,3.4-1.1c1.5-1.9,3.4-3.4,5.7-4.4c3.7-1.6,7.1-1.9,10.6,0.6c2.1,1.5,3.7,3.2,4.7,5.6c0.7,1.7,0.7,1.7,2.5,1.5
					c1.6-0.1,3.3-0.3,4.9-0.4c0,0.1,0,0.2,0,0.2c-3.3,0.4-6.6,0.9-9.9,1.3c0.2-0.3,0.5-0.3,0.7-0.4c1.1-0.2,1.1-0.7,0.7-1.5
					c-0.9-1.8-2.1-3.4-3.5-4.8c-0.6-0.6-1.1-0.5-1.5,0.1c-0.2,0.2-0.3,0.5-0.4,0.7c-0.4,1.3-1.2,2.3-2.6,2.8
					c-0.3,0.1-0.6,0.2-0.4,0.6c0.6,1.8,0.5,3.9,2.6,4.8c0.5,0.2,0.7,0.7,1.1,1.1c1.3,1.4,2.9,2.2,4.9,1.9c0.3,0,0.8-0.1,0.7-0.3
					c-0.2-1,0.5-0.4,0.7-0.5c0.6-0.1,1.2,0.2,1.8,0.4c8.6,3.6,15.8,9.2,22.2,15.7c1.2,1.2,2.1,1.6,3.7,0.8c1.3-0.7,1.5-0.7,0.4-1.7
					c-2.4-2.3-3.5-5.3-4.6-8.4c-0.1-0.2-0.2-0.4,0-0.6c0.5,0,0.8,0.3,1.1,0.7c0.8,1,1.6,2.1,2.4,3.1c0.5,0.6,0.9,1.2,1.7,1.6
					c-0.3-1-0.9-1.6-1.1-2.4c-0.1-0.5-0.1-0.9,0.6-1c0.5,0,0.7-0.3,0.5-0.7c-0.7-1.6-0.5-3,0.6-4.3c0.1-0.1,0.1-0.3,0.2-0.4
					c1.2-3.2,2.5-6.5,3.7-9.7c0.1-0.3,0.2-0.9,0.2-1.3c0-3.8,1-7.5,1.4-11.3c0.1-1.3,0.1-2.6,0.6-3.8c0.6-1.4,0.5-2.8,0.4-4.3
					c0-0.5-0.5-0.9-1-0.8c-4.3,0.6-8.6,1.1-12.9,1.7c-3,0.4-6,1.2-8.9,2.2c-0.2,0-0.3,0.1-0.4,0.3c0.1,0.2,0.6,0.1,0.6,0.5
					c-1.6,0.9-3.2,1.7-4.8,2.6c0-0.1-0.1-0.1-0.1-0.2c0.8-0.6,1.7-1.3,2.5-1.9c-0.1-0.1-0.1-0.1-0.2-0.2c-0.9,0.8-2.5,0.6-2.9,2.2
					c-0.1,0.4-0.5,0.2-0.7,0c-0.5-0.3-0.8-0.7-1.4-0.8l-0.4-0.1C540.5,94.9,532.4,97.2,524.5,100.3L524.5,100.3z M527.3,117.7
					c-0.7,0.1-1.4,0.3-1.9,0.8c-0.5,0.5-0.8,0.6-1.1-0.1c-0.2-0.4-0.6-0.4-1-0.4c-1.5,0-3,0.1-4.5,0.1c-5.6,0.1-11.2,0.7-16.8,1.5
					c-0.5,0.1-1.1,0.2-1.3,0.7c-0.7,2.4-1.7,4.8-1.9,7.4c-0.1,1.3-0.1,1.3,1.1,0.7c8.4-4.2,17.1-7.1,26.4-8.6
					c0.5-0.1,1.1-0.2,1.6-0.1c-1.7,0.5-3.3,0.9-5,1.3c-7.8,1.7-15.4,4.2-22.5,7.9c-0.5,0.3-1.2,0.5-1.4,1.1
					c-0.2,0.6-1.1,1.4,0.3,1.8c0.3,0.1,0.2,0.5,0.2,0.7c-0.1,0.4-0.3,0.8-0.4,1.2c0.5,0,0.7-0.4,1-0.6c0.4-0.2,1-0.7,1.3-0.2
					c0.3,0.4,0.4,1.2-0.2,1.7c-0.6,0.5-1.2,1.1-1.8,1.6c-0.6,0.4-0.7,1-0.8,1.7c-0.1,0.5,0,0.6,0.5,0.6c0.8,0,1.5-0.2,2.1-0.6
					c1.9-1.1,3.8-2.4,5.5-3.8c5.4-4.6,11.4-8.2,17.6-11.5c1.2-0.6,2.8-0.8,4.1-1.3c-0.5,0.5-1.1,0.9-1.7,1.3
					c-0.3,0.2-0.8,0.3-0.7,0.7c0.1,0.3,0.6,0.3,0.9,0.3c2.2,0.1,4-0.6,5.5-2.2c0.6-0.6,1.1-1.3,1.7-1.9c1.1-0.9,1.5-2.1,1.8-3.4
					c0.1-0.3,0.1-0.7-0.1-0.9c-1.1-1.1-1.4-2.4-1.6-3.9c-0.1-0.5-0.2-0.7-0.7-0.5c-2.5,1-4.6,2.5-6.1,4.7c-0.2,0.3,0,0.8-0.3,0.9
					c-0.4,0.2-0.9,0.4-0.8,0.9C526.4,117.7,526.9,117.4,527.3,117.7z M536.1,138c-0.1-0.2-0.2-0.3-0.3-0.4c-0.5-0.8-0.5-1.8-0.8-2.6
					c-0.6-1.4-1.3-1.8-2.7-1.4c-0.3,0.1-0.5-0.1-0.8-0.2c-0.8-0.3-1.9,0.3-1.7,0.9c0.8,2.8,1.2,5.6,2.6,8.2c1.3,2.4,4.1,2.7,6,0.7
					c2-2.1,2.8-4.7,3.2-7.5c0.2-1.1-0.6-1.8-1.8-1.6c-1,0.2-2,0.5-3.1,0.9c-0.6,0.2-0.7,0.7-0.6,1.3
					C536.1,136.8,536.3,137.3,536.1,138z M600.2,196.6c0.9-1.9,1.7-3.6,2.6-5.4c-0.8,0.2-1.5,0.5-1.7-0.5c0-0.1-0.2-0.2-0.2-0.2
					c-1,0.6-0.6-0.5-0.8-0.8c-0.4-0.1-0.4,0.5-0.8,0.3c0.3-0.9,0.6-1.8,1-2.6c0.3,0.1,0.1,0.5,0.4,0.6c0.2-0.4,0.4-0.8,0.6-1.5
					c0.3,1.1,1,1.9,0.9,2.9c0,0.2,0,0.4,0.2,0.5c0.1,0,0.2,0,0.3-0.1c0.6-1.2,1.7-2.3,1.6-3.5c-0.1-1.6-1-3.1-1.6-4.7
					c-1.5,1.5-2,3.3-2.6,5.1c-0.6,1.7-1.1,3.5-2.3,4.9c-0.9,1-1.1,2.4-1.1,3.8c0.4-0.5,0.8-0.9,1.1-1.4c0.4-0.5,0.8-1.4,1.4-1.1
					c0.5,0.3,0.1,1.1,0,1.7C599.9,194.7,599.9,194.7,600.2,196.6z M578.7,212.7c1.9-1.6,4.6-1,6.2-2.7c-1.7-1.2,0.6-1.7,0.5-2.6
					c-1.3,0.6-1.9-1-3.1-0.8c0,0-0.1-0.2-0.1-0.3c0.2-1.1-0.5-0.7-1-0.6c-0.8,0.1-1.5,0.5-2.1,1c-0.9,0.7-1.3,1.8-2.4,2.2
					c-0.2,0.1-0.2,0.4-0.1,0.6c0.1,0.8,0.4,1.6,1.2,2.1c0.4-0.7,0.2-1.5,0.6-2.3C578.5,210.4,578.6,211.4,578.7,212.7z M587.9,204.2
					c0,0.7-0.7,0.9-0.9,1.4c0.3,0.1,0.7,0,0.9,0.2c-0.2,1-1.2,1.5-1.7,2.4c0.6-0.1,1.1-0.1,1.5-0.3c2.2-0.9,4.5-1.9,5.5-4.3
					c0.2-0.5,0.7-1.2-0.5-1.1c-0.3,0-0.4-0.3-0.5-0.6c-0.3-0.7-1.3-1.2-2-0.9c-2,1-4,2.1-5.4,3.9C585.9,205,586.8,204,587.9,204.2z
					 M593.4,199.6c0.6-0.2,1.1-0.6,1.8-0.4c-0.2,0.9-1.2,1.4-1.6,2.2c0.5,0,0.7-0.2,1.1-0.3c0.5-0.2,1.2-0.5,1.1,0.6
					c0,0.5,0.3,0.3,0.6,0.2c1.6-0.6,2.2-2.1,2.8-3.5c0.1-0.4-0.3-1.4-0.6-1.4c-0.7,0.1-0.9-0.3-1.2-0.7c-0.5,0.4-1,1-1.4,0.7
					c-0.5-0.4-0.1-1.1,0.1-1.7c0.1-0.4,0.5-0.8,0.2-1.5C594.7,195.7,593.9,197.6,593.4,199.6z M604.3,175.1c-0.1,0-0.2-0.1-0.3-0.1
					c-0.4,0.8-0.8,1.8-1.8,1.9c-0.1,0-0.2,0.3-0.2,0.4c-0.3,1.3-0.5,2.5-0.6,3.9c0.2-0.1,0.3-0.1,0.4-0.1c1.4-1.1,1.5-1.1,2.6,0.3
					c0.5,0.6,0.6,0.3,0.9-0.2c0.2-0.4,0.2-0.7,0.1-1.1C605,178.4,604.7,176.7,604.3,175.1z M537.4,113.2c0.7-0.9,1.2-1.6,1.8-2.3
					c0.4-0.5,0.3-0.8-0.4-0.8c-0.7,0-1.5,0.1-2.2,0c-0.6,0-0.6,0.3-0.4,0.7C536.6,111.6,536.9,112.4,537.4,113.2z M575.4,211
					c-0.1,0-0.2,0-0.2,0c-0.1,0.5-0.3,1-0.4,1.4c-0.1,0.2-0.3,0.5,0,0.6c0.2,0.1,0.5,0,0.7-0.1c0.3-0.1,0.3-0.3,0.2-0.5
					C575.6,212,575.5,211.5,575.4,211z"/>
				<path class="st1" d="M527.3,145c0.4,1.1,1,2.2,1.2,3.4c0.3,1.5,1.3,2.5,2.5,3.2c2.5,1.5,5.1,1.8,7.8,0.6c1.4-0.6,2.1-2,3.1-3.1
					c0.5-0.5,0.9-1,1.3-1.5c0.1-0.2,0.4-0.4,0.6-0.2c0.2,0.2,0.1,0.4,0,0.6c-0.3,0.8-0.8,1.5-1.4,2.1c-1.1,1.1-2.2,2.1-3.2,3.2
					c-0.5,0.5-1,0.7-1.7,0.6c-1.4-0.2-2.9-0.1-4.3,0c-1.5,0.1-2.9-0.1-3.9-1.5c-0.9-1.3-1.5-2.6-1.7-4.2c-0.1-1-0.4-2.1-0.6-3.1
					C527.1,145,527.2,145,527.3,145z"/>
				<path class="st1" d="M536.1,168.3c-0.5-1.6-1-3.2-1.5-4.7c0.1,0,0.1-0.1,0.2-0.1c0.5,0.7,0.9,1.4,1.5,2.2c0.4-1,0.3-1.9,0.6-2.9
					C537.3,164.2,537,166.5,536.1,168.3z"/>
				<path class="st1" d="M531.8,162.4c0.5,0.7,1.7,0.9,1.7,1.9c0.6,0,0.1-0.6,0.6-0.7c0.4,1.3,0.8,2.5,1.3,3.8
					c-0.1,0-0.2,0.1-0.2,0.1C533.9,165.9,532.3,164.6,531.8,162.4z"/>
				<path class="st1" d="M538.4,162.9c0,0.5-0.1,0.9-0.2,1.7c0.7-0.8,1.2-1.4,1.7-2c0,0,0.1,0.1,0.1,0.1c-0.6,1.5-1.3,3.1-2,4.8
					C537.4,165.8,537.7,164.3,538.4,162.9z"/>
				<path class="st0" d="M529.4,216.5c0,0.5-0.4,0.8-0.8,0.5c-0.7-0.5-1.1-0.2-1.5,0.4c-0.2,0.4-0.6,0.4-0.9,0
					c-0.1-0.1,0-0.2-0.1-0.3c1.2,0,0.5-1.1,0.9-1.7c0.4-0.5,0.6-0.9,1.2-0.2C528.6,215.7,529,216.1,529.4,216.5z"/>
				<path class="st1" d="M527.7,162.4c0.7,0,0.9-0.2,0.8-0.7c0.9,0.9,1.6,1.6,2.4,2.3c-0.1,0.1-0.1,0.2-0.2,0.3
					C529.8,163.7,528.9,163.1,527.7,162.4z"/>
				<path class="st1" d="M541.3,162.5c-0.4,0.8-0.9,1.5-1.3,2.3c-0.1,0.1-0.1,0.3-0.4,0.2c-0.2-0.1-0.2-0.3-0.1-0.4
					c0.5-0.7,1-1.5,1.5-2.2C541.2,162.4,541.2,162.5,541.3,162.5z"/>
				<path class="st1" d="M543.6,162.6c0,0.8-0.2,1.2-0.4,1.6c-0.1,0.3-0.3,0.3-0.5,0.2c-0.3-0.1-0.2-0.3,0-0.5
					C542.9,163.5,543.2,163.1,543.6,162.6z"/>
				<path class="st1" d="M502.9,117.2c-0.5-0.6-0.6-1.3-0.7-2c-0.8-5-0.7-10-0.1-15c0.2-1.5,0.3-3.1,0.6-4.6
					c0.5,5.3-0.9,10.7,1,15.9c0.3-0.8-0.1-1.8,0.4-2.6c0.2,2.5,1,4.9,0.2,7.4c-0.1,0.2-0.2,0.4-0.4,0.4
					C503.5,116.7,503,117,502.9,117.2z"/>
				<path class="st1" d="M512.8,110.8c3.2-0.6,6.2-1.2,9.2-1.8c0.6-0.1,1.3,0.1,1.8,0.4c0.4,0.2,0.7,0.4,0.3,0.9
					c-0.5,0.5,0.1,0.7,0.3,1.1c0.3,0.5,1.1,1,0.6,1.5c-0.4,0.4-1.1-0.1-1.5-0.4c-2-1.3-4.3-1.2-6.6-1
					C514.4,111.7,514.2,111.7,512.8,110.8z"/>
				<path class="st1" d="M562.1,116c-1.4,0.1-2.6-0.2-3.7-1c-1.9-1.3-3.9-1.5-6.1-1c-0.5,0.1-1,0.2-1.6,0.3
					c-0.9,0.1-1.1-0.3-0.9-1.2c0.4-1,1.3-1.6,2.4-1.5c0.5,0.1,1,0,1.5,0.2c1.4,0.7,3.1,0.1,4.5,1.2
					C559.5,114.1,560.9,114.9,562.1,116z"/>
				<path class="st1" d="M577.7,103.6c0.4,2.3,0.3,4.5-0.1,6.8c-0.5,3.2-1,6.5-1.5,9.8c0,0.2-0.1,0.5-0.2,0.7
					c-0.1,0.1-0.3,0.3-0.4,0.2c-0.2,0-0.2-0.3-0.2-0.4c0.1-0.3,0.2-0.6,0.2-0.9c0.1-0.3,0.3-0.7,0.1-0.8c-0.8-1-0.3-2-0.1-3
					c0.5-3.8,1.1-7.6,1.7-11.4C577.4,104.2,577.4,103.9,577.7,103.6z"/>
				<path class="st1" d="M565.9,105.8c0.6-0.3,1.2-0.7,1.8-1c0.3-0.1,0.7-0.3,0.9,0c0.2,0.3-0.2,0.5-0.4,0.8
					c-0.2,0.2-0.4,0.2-0.5,0.5c0.1,0,0.1,0.1,0.2,0.1c0.4-0.1,1-0.5,1.2,0c0.3,0.5-0.4,0.7-0.7,1c-0.8,0.7-1.6,1.3-2.7,0.5
					c-0.5-0.3-1.1-0.4-1.6-0.7c-0.6-0.4-0.7-0.9-0.1-1.4c1-0.7,1.9-1.4,2.9-2.1c0.3-0.2,0.7-0.3,0.9,0c0.2,0.2-0.1,0.5-0.3,0.7
					c-0.5,0.5-1.1,0.9-1.6,1.3C565.8,105.7,565.8,105.7,565.9,105.8z"/>
				<path class="st1" d="M562.9,105.5c0.3-0.7,0.8-1.2,1.3-1.6c2.7-2.1,5.7-3.5,9.1-4.1c1.2-0.2,2.4-0.5,3.7-0.7
					c0.3-0.1,0.6-0.1,0.8-0.1c0.3,0,0.7,0,0.7,0.4c0,0.4-0.4,0.3-0.7,0.3c-4.4,0.6-8.5,1.8-12.3,4.1
					C564.7,104.4,563.8,105,562.9,105.5z"/>
				<path class="st1" d="M548.8,121.4c8,0.7,15.7,2.7,22.9,6.3C564.3,124.9,556.6,122.9,548.8,121.4z"/>
				<path class="st1" d="M570.2,121.2c-7.4-1.1-14.8-2.5-22.3-1.9C555.5,117.9,562.8,119.2,570.2,121.2z"/>
				<path class="st1" d="M506.9,107.6c-0.1,1.2-0.2,2.4-0.3,3.7c0,0.1,0,0.2,0,0.2c-0.9,0.2-0.7,1-0.9,1.6c0,0.1-0.2,0.2-0.3,0.2
					c-0.2-0.1-0.4-0.3-0.3-0.5c0.1-1.3,0.2-2.6,0.4-4.2c0.5,0.6,0.2,1.1,0.4,1.6C506.4,109.4,506.3,108.4,506.9,107.6z"/>
				<path class="st1" d="M516.8,103.7c-2.3-1.8-4.1-3.8-5.9-5.9C512.5,98.3,515.9,101.7,516.8,103.7z"/>
				<path class="st1" d="M574.5,113.9c0.1,1.5,0.3,3,0.4,4.4c0,0.2-0.1,0.4-0.3,0.5c-0.3,0-0.3-0.3-0.3-0.4c0-1.5,0-3,0-4.5
					C574.3,113.9,574.4,113.9,574.5,113.9z"/>
				<path class="st1" d="M569,109.9c-0.5-1.5,0.4-2.4,1.4-3.2C570,107.8,569.5,108.9,569,109.9z"/>
				<path class="st1" d="M558.2,102.7c1.2-0.6,2.4-1.2,3.6-1.8c0.1-0.1,0.3,0,0.3,0.1c0,0.2-0.1,0.2-0.2,0.3
					c-1.2,0.5-2.4,1.1-3.6,1.6C558.3,102.9,558.3,102.8,558.2,102.7z"/>
				<path class="st1" d="M516.2,100.4c0.7,0.9,1.5,1.9,2.2,2.8c0.1,0.1,0.2,0.3,0,0.5c-0.3,0.2-0.5,0-0.6-0.2
					c-0.8-0.9-1.1-2-1.8-2.9C516.1,100.5,516.1,100.4,516.2,100.4z"/>
				<path class="st1" d="M508.5,106.8c-0.1,1.2-0.2,2.4-0.4,3.6C507.4,109.1,507.8,107.9,508.5,106.8z"/>
				<path class="st1" d="M510.7,105c-0.1,0.9-0.3,1.8-0.4,2.7c0,0.2-0.1,0.4-0.3,0.3c-0.2,0-0.2-0.2-0.2-0.4
					c0.2-0.9,0.4-1.8,0.6-2.6C510.5,104.9,510.6,104.9,510.7,105z"/>
				<path class="st1" d="M512.7,104.5c-0.3,0.9-0.6,1.8-0.9,2.8C511.4,106.2,511.5,105.9,512.7,104.5z"/>
				<path class="st1" d="M519.1,103.4c-0.1-1.1,0.1-2.1-1.1-2.4c0.2-0.4,0.6-0.3,0.7-0.1C519.2,101.5,519.6,102.2,519.1,103.4z"/>
			</g>
			<path style="clip-path:url(#SVGID_10_);fill:#FFFFFF;" d="M527.1,226.6c-0.8,0-1.7-0.1-2.6-0.2c-0.4-0.1-1.4-0.3-1.6-1.6
				c-0.1-0.9-0.3-1.8,0-2.8c0.5-2.5-0.1-4.9-1-7.5c-0.9-0.7-1.6-1.7-2-3c-0.7-2.4-1.9-4.5-3-6.3c-1.9-3.2-3-6.8-3.9-10.2l-0.1-0.3
				c-0.2-0.7-0.3-1.3-0.7-1.8c-0.2-0.3-0.4-0.7-0.4-1.2c0-0.6,0-1.1,0.1-1.7c0.1-0.7,0.1-1.3,0.1-1.9c-0.1-0.6-0.1-1.2-0.1-1.8
				l-0.8-1.1c-0.4-0.8-0.3-1.7-0.2-2.2l-0.4-0.4c-0.4-0.5-0.3-1.2-0.3-1.5c0.1-0.8,0-1.5-0.5-2.6c-0.5-1.2-0.2-2.2,0.1-3.3
				c0.4-1.3,1.1-2.5,1.7-3.7c0.7-1.3,1.3-2.5,1.7-3.9c0.1-0.4,0.2-0.8,0.5-1.2c1.1-1.3,1.1-2.9,1.2-4.8c0-0.8,0-1.5,0.1-2.3h0
				c0,0-0.1-0.1-0.2-0.1c-3.9-1.4-7.3-3.8-10.5-6.1c-0.7-0.5-1.5-1.1-2.2-1.6c-0.7-0.5-1.3-1.2-1.8-1.8c-0.4-0.6-0.9-1.1-1.4-1.5
				l-2.6-1.9l2.7-0.3c-0.4-0.3-0.8-0.7-1.1-1.2l-2-1.1c-0.4-0.4-1.1-1.5,0.3-3c0.1-0.1,0.1-0.1,0.2-0.2c-0.7-0.2-1.4-0.5-2-0.7
				c-0.3-0.1-1.1-0.3-1.4-1.2c-0.3-0.8,0.2-1.6,0.3-1.8c0.4-0.7,0.9-1.2,1.5-1.7c1.1-0.9,1.3-2.4,1.4-4.2l0.2-2.3
				c-0.2-1.2,0-2.4,0.2-3.2c0.2-1.3,0.2-2.7,0.2-4l-0.4-3.2c-0.9-3.9-1.2-7.9-1.5-11.7c-0.4-6.7,0.5-13.5,2.8-20
				c0.3-0.9,0.8-1.5,1.5-1.9c0.8-0.4,1.7-0.3,2.8,0.1c2.6,1,5.2,1.9,7.7,3.1c5.1,2.4,9.5,5.6,13.3,9.4c0.3,0.4,0.6,0.6,0.7,0.6
				c0,0,0.6-0.3,0.8-0.4c4.2-2.1,8.6-2.4,13-2.8c2.3-0.2,4-0.1,5.7,0.2c4.2,0.8,8,2.1,11.5,3.9c0.6,0.3,0.9,0.3,1.5-0.1
				c6.4-3.9,12.5-5.8,18.9-5.8c0.1,0,0.1,0,0.2,0c1.4,0,2.7-0.1,4.2-0.3c1.5-0.1,3-0.3,4.5-0.3c2.1,0,2.8,0.6,3.2,2.6
				c0.6,2.6,0.4,5.1,0.3,7.6c-0.2,3.9-1.2,7.6-2.1,11.1c-0.3,1.4-0.7,2.7-1,4.1c-0.7,3.1-2.1,5.7-3.8,8.6c-0.7,1.2-0.9,2.2-0.5,3.4
				c0.6,1.9,0.7,4,0.4,6c0,0.2-0.1,0.7-0.4,1.1c0.2,0.1,0.4,0.2,0.6,0.3c0.2,0.1,0.4,0.2,0.6,0.3c0.4,0.2,1.4,0.8,1.4,1.8
				c0,1.1-1.1,1.6-1.4,1.8c-0.3,0.2-0.7,0.3-1,0.5c0.5,0.2,1,0.7,1.2,1.5c0.1,0.6,0.1,1.6-1.5,2.1c-0.9,0.4-1.6,0.7-2.4,1
				c-0.3,0.1-0.6,0.4-1,0.7c-0.3,0.3-0.6,0.6-1.1,0.9c0.5,0,1,0.2,1.4,0.7c0.5,0.7,0.5,1.4-0.1,2.3c-0.9,1.5-2.1,2.6-3.5,3.3
				l-1.8,0.9c-3.2,1.7-6.6,3.4-10.4,4.1c0.1,0.1,0.2,0.2,0.4,0.3c0.4,0.3,1.2,1,1.1,2.1c4.4,3.5,7.3,8.2,9.8,12.7
				c0.2,0.4,0.4,0.9,0.6,1.3c0.4,0.9,0.7,1.6,1.3,2c0.3,0.2,0.7,0.6,0.7,1.2c0.1,1.2,0.9,2,1.9,3c0.4,0.4,0.8,0.8,1.1,1.2
				c0.4,0.5,1.1,1.3,0.6,2.7c-0.2,0.5-0.1,1.2,0.2,1.7c0.4,0.8,0.9,1.6,1.1,2.6c0.1,0.3,0.2,0.6,0.3,0.8c0.4,0.9,0.9,2.2,0.2,4
				c-0.8,2-0.6,4.4-0.4,6.2l0.2,1.4c0.1,0.5,0.2,0.8,0.3,0.9c0.1,0.1,0.4,0.1,0.9-0.2c2.2-1,4.1-1.9,5.9-3.1
				c4.6-2.9,7.3-7.4,9.3-11.5c1.6-3.2,2.5-6.2,2.8-9.3c0.2-2.3,1.4-4.2,2.4-5.8c0.8-1.2,2.1-1.5,3.4-0.7c1.4,0.8,2.2,2.1,2.3,3.6
				c0.4,4.2,0.6,9.1-1.5,13.9c-0.4,0.9-0.7,1.7-1,2.6c-1.4,4.7-4.1,8.7-8.2,12.3c-0.3,0.2-0.5,0.5-1,0.6c-1.9,0.6-3.3,1.9-4.8,3.3
				l-0.7,0.6c-2.4,2.2-5.2,3.3-7.9,4.3c-1.2,0.4-2.1,0.9-2.9,1.4c-1.2,0.7-2.4,1-3.6,1.2l-0.8,0.2c-1,0.2-2,0.6-3.1,1
				c-1.4,0.5-2.8,1-4.3,1.3c-3.4,2-7.3,2.5-11,3.1c-0.8,0.1-1.6,0.2-2.3,0.4c-0.9,0.1-1.7,0.2-2.6,0.2c-1.2,0-2.1-0.5-2.8-0.9
				c-0.2-0.1-0.4-0.2-0.7-0.3c-0.5-0.2-1.2-0.5-1.7-1.1c-0.6,1.4-1.8,2-2.8,2.4c-2,0.8-4,1.7-5.7,2.5c-1,0.5-2,0.3-2.7,0.1
				c-0.1,0-0.1,0-0.2,0c-1.4,1.3-3.1,1.3-4.5,1.3c-0.3,0-0.5,0-0.8,0c-0.4,0-0.9,0-1.3,0C528.2,226.6,527.7,226.6,527.1,226.6z
				 M525.3,224c1.1,0.2,2.2,0.1,3.4,0.1c0.5,0,0.9,0,1.4,0c0.3,0,0.6,0,0.9,0c1.4,0,2.3,0,2.9-0.8c0.5-0.6,1.2-0.8,2.1-0.4
				c0.7,0.2,1,0.3,1.2,0.2c1.7-0.8,3.8-1.8,5.9-2.6c1-0.4,1.4-0.7,1.5-1.3c0.3-1,1.3-1.5,2.1-1.6c0.9,0,1.4,0.4,1.6,0.9
				c0.2,0.4,0.4,0.5,1.1,0.8c0.3,0.2,0.7,0.3,1,0.5c0.6,0.4,0.9,0.5,1.4,0.5c0.8,0,1.6,0,2.3-0.1c0.8-0.1,1.6-0.2,2.4-0.4
				c3.7-0.5,7.1-1,10.2-2.8c0.2-0.1,0.5-0.2,0.7-0.3c1.3-0.2,2.6-0.7,3.9-1.2c1.1-0.4,2.2-0.8,3.3-1.1l0.8-0.2
				c1.1-0.2,2.1-0.5,2.9-0.9c0.9-0.6,2-1,3.3-1.5c2.5-1,5.1-1.9,7.1-3.8l0.6-0.6c1.6-1.6,3.3-3.2,5.7-3.9c3.8-3.4,6.2-7.1,7.5-11.3
				c0.3-1,0.7-2,1.1-2.9c1.9-4.2,1.8-8.7,1.3-12.6c-0.1-0.7-0.5-1.3-1.2-1.7c-1,1.3-1.9,2.9-2.1,4.6c-0.3,3.4-1.3,6.7-3.1,10.2
				c-2,4.1-5,9.1-10.2,12.4c-1.9,1.2-3.9,2.2-6.2,3.2c-1.5,0.7-2.6,0.4-3.2,0.1c-0.6-0.3-1.4-1.1-1.6-2.7l-0.2-1.4
				c-0.3-2.2-0.4-5,0.5-7.4c0.3-0.8,0.1-1.2-0.2-2.1c-0.2-0.4-0.3-0.7-0.4-1.1c-0.2-0.7-0.5-1.3-0.9-2c-0.6-1.2-0.8-2.5-0.4-3.7
				c0-0.2-0.1-0.3-0.2-0.4c-0.3-0.4-0.6-0.7-1-1.1c-1-1-2.2-2.2-2.5-4c-1-0.8-1.5-1.9-1.9-2.9c-0.2-0.4-0.3-0.7-0.5-1.1
				c-2.5-4.5-5.1-8.8-9.2-12c-0.8-0.6-1.1-1.3-1-2c0,0,0,0,0,0c-0.6-0.5-1.1-0.9-1.7-1.4c-0.9-0.6-1-1.3-0.9-1.8
				c0.1-0.5,0.5-1.2,1.7-1.3c4-0.4,7.5-2.2,11.1-4.1l1.8-0.9c0.7-0.4,1.3-0.8,1.8-1.4c-0.8,0-1.5-0.3-2.3-0.8l-1.8-1.2l1.9-0.9
				c0.3-0.1,0.5-0.2,0.8-0.3c0.2-0.1,0.4-0.1,0.5-0.2l-0.1-1l0.9-0.2c0.3-0.1,0.7-0.4,1-0.7c0.5-0.4,1-0.9,1.8-1.2
				c0.1,0,0.2-0.1,0.3-0.1c-0.6-0.1-1.3-0.4-1.9-1l-1.6-1.6l2.1-0.5c1.2-0.3,2.4-0.7,3.6-1.2c-0.4-0.2-0.9-0.5-1.3-0.9
				c-0.5-0.4-1.1-1-0.9-2c0.1-0.5,0.4-0.9,1-1.2c0.2-1.7,0.1-3.3-0.4-4.8c-0.5-1.8-0.3-3.5,0.7-5.3c1.6-2.7,2.9-5.2,3.5-7.9
				c0.3-1.4,0.7-2.8,1-4.2c0.9-3.6,1.8-6.9,2-10.5c0.1-2.5,0.3-4.8-0.2-7c-0.1-0.4-0.2-0.6-0.2-0.7c0,0.1-0.2,0.1-0.6,0.1
				c-1.4,0-2.8,0.1-4.2,0.3c-1.5,0.1-3,0.3-4.5,0.3c0,0-0.1,0-0.1,0c-5.9,0-11.6,1.8-17.6,5.4c-1.3,0.8-2.6,0.8-3.9,0.1
				c-3.3-1.7-6.9-2.9-10.8-3.7c-1.5-0.3-3-0.3-4.9-0.2c-4.4,0.3-8.4,0.7-12.2,2.5c-2,1-2.8,0.9-4.3-0.7c-3.6-3.7-7.8-6.7-12.6-8.9
				c-2.4-1.1-4.9-2.1-7.5-3c-0.7-0.3-0.9-0.2-0.9-0.2c0,0-0.1,0.1-0.2,0.4c-2.1,6.3-3,12.7-2.7,19.1c0.2,3.7,0.5,7.6,1.4,11.4
				l0.4,3.4c0.1,1.5,0.1,3.1-0.2,4.6c-0.2,0.9-0.3,1.7-0.2,2.5l0,0.2l-0.2,2.6c-0.1,1.8-0.2,4.3-2.2,6c-0.2,0.2-0.4,0.4-0.6,0.6
				c0.7,0.2,1.4,0.5,2.1,0.7l3.2,1.1l-2,1.9c-0.3,0.3-0.6,0.5-0.8,0.8l1.5,0.8l0.2,0.3c0.4,0.7,1.1,1.1,2.1,1.7l0.2,0.1
				c0.4,0.2,1,0.4,1.5,1l1.4,1.8l-2.8,0.3c0.4,0.5,0.8,1,1.2,1.3c0.8,0.5,1.5,1.1,2.3,1.6c3.2,2.3,6.3,4.5,9.9,5.8
				c1.3,0.5,2,1.5,1.9,2.8c-0.1,0.7-0.1,1.4-0.1,2c-0.1,2-0.1,4.3-1.7,6.3c-0.4,1.8-1.2,3.3-1.9,4.7c-0.6,1.1-1.1,2.2-1.5,3.3
				c-0.3,0.8-0.3,1.2-0.2,1.6c0.3,0.9,0.7,2.1,0.6,3.4c0.2,0.1,0.4,0.3,0.6,0.5c0.2,0.4,0.3,0.7,0.3,1l0.5-0.2l0.1,1.6
				c0.1,0.7,0.1,1.3,0.1,1.9c0,0.7,0.1,1.3,0.1,1.9c0.1,0.9,0,1.7,0,2.4c0,0.5-0.1,0.9-0.1,1.4c0.6,0.8,0.8,1.7,1,2.5l0.1,0.3
				c1,3.7,1.9,6.8,3.6,9.6c1.2,1.9,2.5,4.3,3.3,6.9c0.2,0.8,0.6,1.4,1.2,1.9c0.2,0.2,0.6,0.5,0.8,1.1c0.9,2.9,1.7,5.7,1,8.8
				C525.2,223.1,525.2,223.5,525.3,224z M547.1,219.8C547.1,219.8,547.1,219.8,547.1,219.8C547.1,219.8,547.1,219.8,547.1,219.8z
				 M546.2,219.4C546.2,219.4,546.2,219.4,546.2,219.4C546.2,219.4,546.2,219.4,546.2,219.4z M511.7,180.7
				C511.7,180.7,511.7,180.7,511.7,180.7C511.7,180.7,511.7,180.7,511.7,180.7z M572.3,179.1C572.3,179.1,572.3,179.1,572.3,179.1
				C572.3,179.1,572.3,179.1,572.3,179.1z M558.8,158.2l0.2,1.2c0.1,0,0.1,0,0.2-0.1L558.8,158.2z M580.1,138.9L580.1,138.9
				L580.1,138.9z M578.3,135.2C578.3,135.2,578.2,135.2,578.3,135.2C578.2,135.2,578.3,135.2,578.3,135.2z"/>
		</g>
		<g>
			<path class="st0" d="M526.7,179c0,0,2.7,6.5-3,6.5c0,0-2,3.6-6.2,1.4c0,0-2.8,1.9-5.6-1.3c0,0-6.5,1.7-4.2-7.5
				C510.1,168.9,525.7,172.9,526.7,179z"/>
			<path class="st1" d="M520.1,188.2c-0.8,0-1.7-0.2-2.6-0.6c-0.4,0.2-1.1,0.5-2,0.5c-1,0-2.4-0.3-3.8-1.7c-0.2,0-0.5,0.1-0.9,0.1
				c-1.4,0-2.6-0.5-3.3-1.5c-1.1-1.4-1.3-3.8-0.4-7c0.5-2,1.6-3.6,3.3-4.6c1.5-0.9,3.3-1.3,5.4-1.3c2.5,0,5.3,0.7,7.5,1.9
				c2.4,1.3,3.8,3,4.2,4.9c0.2,0.6,1.4,3.7,0,5.7c-0.7,1-1.8,1.5-3.3,1.6C523.6,186.8,522.3,188.2,520.1,188.2
				C520.1,188.2,520.1,188.2,520.1,188.2z M517.5,186.1c0.1,0,0.2,0,0.3,0.1c0.8,0.4,1.5,0.6,2.2,0.6c0,0,0,0,0,0c2,0,3-1.7,3-1.8
				c0.1-0.2,0.4-0.4,0.6-0.4c1.2,0,2.1-0.3,2.5-1c0.9-1.3,0.2-3.7-0.2-4.5c0-0.1,0-0.1,0-0.2c-0.2-1.4-1.5-2.8-3.5-3.9
				c-2-1.1-4.5-1.7-6.8-1.7c-2.3,0-6.2,0.6-7.3,4.9c-0.7,2.7-0.7,4.8,0.2,5.8c0.5,0.6,1.2,0.9,2.2,0.9c0.5,0,0.9-0.1,0.9-0.1
				c0.3-0.1,0.5,0,0.7,0.2c0.9,1,2,1.6,3,1.6c0.9,0,1.6-0.4,1.6-0.4C517.2,186.2,517.3,186.1,517.5,186.1z"/>
		</g>
		<g>
			<path class="st0" d="M558.2,178.7c0,0-2.7,6.5,3,6.5c0,0,2,3.6,6.2,1.4c0,0,2.8,1.9,5.6-1.3c0,0,6.5,1.7,4.2-7.5
				C574.7,168.6,559.1,172.7,558.2,178.7z"/>
			<path class="st1" d="M564.8,188c-2.2,0-3.5-1.4-4-2.1c-1.5-0.1-2.7-0.6-3.3-1.6c-1.3-2-0.2-5.2,0-5.7c0.3-1.8,1.8-3.6,4.2-4.9
				c2.2-1.2,4.9-1.9,7.5-1.9c2.1,0,3.9,0.5,5.4,1.3c1.7,1,2.8,2.6,3.3,4.6c0.8,3.2,0.7,5.6-0.4,7c-0.7,1-1.9,1.5-3.3,1.5
				c-0.3,0-0.6,0-0.9-0.1c-1.4,1.4-2.8,1.7-3.8,1.7c-0.9,0-1.6-0.3-2-0.5C566.5,187.8,565.6,188,564.8,188
				C564.8,188,564.8,188,564.8,188z M567.8,186c0,0,0.7,0.4,1.6,0.4c1.1,0,2.1-0.5,3-1.6c0.2-0.2,0.5-0.3,0.7-0.2
				c0,0,0.4,0.1,0.9,0.1c1,0,1.7-0.3,2.2-0.9c0.8-1.1,0.9-3.1,0.2-5.8c-1.1-4.2-5.1-4.9-7.3-4.9c-2.3,0-4.8,0.6-6.8,1.7
				c-2,1.1-3.2,2.5-3.5,3.9c0,0.1,0,0.1,0,0.2c-0.3,0.8-1,3.2-0.2,4.5c0.4,0.7,1.3,1,2.5,1c0.3,0,0.5,0.1,0.6,0.4c0,0.1,1,1.8,3,1.8
				c0,0,0,0,0,0c0.7,0,1.4-0.2,2.2-0.6c0.1-0.1,0.2-0.1,0.3-0.1C567.5,185.9,567.7,185.9,567.8,186z"/>
		</g>
	</g>
	<path class="st13" d="M536.1,138c-0.1-0.2-0.2-0.3-0.3-0.4c-0.5-0.8-0.5-1.8-0.8-2.6c-0.6-1.4-1.3-1.8-2.7-1.4
		c-0.3,0.1-0.5-0.1-0.8-0.2c-0.8-0.3-1.9,0.3-1.7,0.9c0.8,2.8,1.2,5.6,2.6,8.2c1.3,2.4,4.1,2.7,6,0.7c2-2.1,2.8-4.7,3.2-7.5
		c0.2-1.1-0.6-1.8-1.8-1.6c-1,0.2-2,0.5-3.1,0.9c-0.6,0.2-0.7,0.7-0.6,1.3C536.2,136.8,536.3,137.3,536.1,138z"/>
	<path d="M547.1,117.7c-0.9-1.8-2.5-4.3-4-5.7c-0.6-0.6-1.1-0.5-1.5,0.1c-0.2,0.2-0.3,0.5-0.4,0.7c-0.4,1.3-1.2,2.3-2.6,2.8
		c-0.3,0.1-0.6,0.2-0.4,0.6c0.6,1.8,0.5,3.9,2.6,4.8c0.5,0.2,0.7,0.7,1.1,1.1c1.3,1.4,2.9,2.2,4.9,1.9c0.3,0,0.8-0.1,0.7-0.3
		l0.8,2.1c-1.3-0.2-1.9,0.6-2.4,1.5c-2,3.3-3.1,6.9-3.6,10.7c-0.3,2.3-1.2,4.3-2.8,6.1c-1.9,2.3-5.1,2.9-7.5,1.4
		c-1.9-1.2-2.5-3.1-2.9-5.1c-0.8-3.8-1.1-7.7-1.6-11.6c-0.2-1.7-0.8-3.2-2.1-4.4l1.3-1c2.2,0.1,4-0.6,5.5-2.2
		c0.6-0.6,1.1-1.3,1.7-1.9c1.1-0.9,1.5-2.1,1.8-3.4c0.1-0.3,0.1-0.7-0.1-0.9c-1.1-1.1-1.4-2.4-1.6-3.9c-0.1-0.5-0.2-0.7-0.7-0.5
		c-2.5,1-4.6,2.5-6.1,4.7c-0.2,0.3,0,0.8-0.3,0.9c-0.4,0.2,0.1,0,0.2,0.5c0.1,0.4-0.3,0.5,0.1,0.8c-0.7,0.1-1.4,0.3-1.9,0.8
		c0,0-0.6-2,1.4-4.3c1.5-1.9,3.4-3.4,5.7-4.4c3.7-1.6,7.1-1.9,10.6,0.6c2.1,1.5,4.2,4.1,5.2,6.5L547.1,117.7z"/>
	<path class="st13" d="M536.1,138c-0.1-0.2-0.2-0.3-0.3-0.4c-0.5-0.8-0.5-1.8-0.8-2.6c-0.6-1.4-1.3-1.8-2.7-1.4
		c-0.3,0.1-0.5-0.1-0.8-0.2c-0.8-0.3-1.9,0.3-1.7,0.9c0.8,2.8,1.2,5.6,2.6,8.2c1.3,2.4,4.1,2.7,6,0.7c2-2.1,2.8-4.7,3.2-7.5
		c0.2-1.1-0.6-1.8-1.8-1.6c-1,0.2-2,0.5-3.1,0.9c-0.6,0.2-0.7,0.7-0.6,1.3C536.1,136.8,536.3,137.3,536.1,138z"/>
	<path class="st0" d="M537.4,113.2c0.7-0.9,1.2-1.6,1.8-2.3c0.4-0.5,0.3-0.8-0.4-0.8c-0.7,0-1.5,0.1-2.2,0c-0.6,0-0.6,0.3-0.4,0.7
		C536.6,111.6,536.9,112.4,537.4,113.2z"/>
	<path class="st1" d="M526.2,123.7c-8,0.7-15.7,2.7-22.9,6.3C510.7,127.2,518.4,125.2,526.2,123.7z"/>
	<path class="st1" d="M504.8,123.4c7.4-1.1,14.8-2.5,22.3-1.9C519.5,120.2,512.1,121.5,504.8,123.4z"/>
</g>
</svg>
